<svg width="225" height="192" viewBox="0 0 225 192" fill="none" xmlns="http://www.w3.org/2000/svg">
<path d="M98.2514 142.744C98.2514 142.744 86.0457 177.131 83 192H159C159 192 149.49 149.014 143.398 142.923L98.2514 142.744Z" fill="#6391F7"/>
<path d="M96.5496 147.806C112.808 148.542 129.2 148.548 145.459 147.806C129.199 147.065 112.808 147.07 96.5496 147.806Z" fill="white"/>
<path d="M103.671 148.209C101.5 151.905 98.9897 156.874 94.6292 158.167C94.0008 158.34 93.3406 158.405 92.6531 158.421C93.3024 158.642 94.0058 158.724 94.7141 158.688C99.6071 158.198 102.755 152.567 103.671 148.209Z" fill="white"/>
<path d="M124.632 147.671C124.309 154.343 124.189 161.66 124.123 168.363L124.272 168.003C122.857 169.398 120.018 172.225 118.611 173.629L119.522 174.006C119.509 171.822 119.516 169.639 119.487 167.456C119.447 163.088 119.37 158.721 119.242 154.355C119.173 152.172 119.101 149.988 118.989 147.805C118.774 152.17 118.661 156.537 118.581 160.905C118.482 165.701 118.469 170.506 118.448 175.304L119.366 174.383C120.772 172.973 123.594 170.139 124.992 168.722L125.143 168.569L125.141 168.362C125.072 161.654 124.957 154.351 124.632 147.671Z" fill="white"/>
<path d="M140.487 147.806C139.224 153.251 142.418 159.336 148.684 157.346C147.428 157.3 146.211 157.16 145.134 156.736C141.635 155.314 140.927 151.183 140.487 147.806Z" fill="white"/>
<path d="M178.845 72.0781L170.204 72.3383C170.204 72.3383 167.408 85.0534 163.58 102.014C162.315 100.005 161.13 98.1036 160.038 96.3272C156.183 103.886 151.456 110.918 146.368 117.7C149.253 122.595 152.569 127.943 156.331 133.509C156.383 133.586 156.435 133.662 156.487 133.74C163.165 143.596 178.572 139.974 180.143 128.173C180.161 128.039 180.179 127.904 180.197 127.77C182.529 110.093 182.93 90.71 178.845 72.0781Z" fill="#F0C1A3"/>
<path d="M173.735 59.2891C173.538 57.0373 173.246 54.6877 172.88 54.7635C172.275 54.8896 171.916 56.4631 171.65 58.4505C172.355 58.6721 173.059 58.9508 173.735 59.2891Z" fill="#D98667"/>
<path d="M177.387 62.0548C177.351 59.6359 177.178 54.9028 176.377 54.4695C175.75 54.1308 175.056 57.1519 174.583 59.7499C175.678 60.3957 176.655 61.1806 177.387 62.0548Z" fill="#D98667"/>
<path d="M183.413 58.8523C182.838 59.2641 181.87 60.4333 180.63 63.7124C180.63 63.7124 181.472 56.3199 180.635 55.2699C179.972 54.437 178.328 60.0625 177.674 62.4344C178.09 63.0014 178.413 63.5972 178.585 64.2169C178.847 65.1638 178.91 66.021 178.817 66.7948C179.836 69.5694 178.134 72.8276 175.171 73.8472C174.022 74.2427 172.836 74.301 171.661 74.1415C170.746 74.454 169.773 74.5438 168.89 74.4025C169.558 75.5706 170.356 76.7634 171.328 77.9444L177.345 76.796C177.345 76.796 183.934 64.3627 184.012 59.158C184.018 58.8258 183.684 58.6569 183.413 58.8523Z" fill="#F0C1A3"/>
<path d="M162.299 115.424C163.471 110.401 163.913 105.186 164.256 100.048C163.468 101.422 162.548 103.064 161.858 104.474C161.413 105.362 160.983 106.259 160.597 107.183C161.226 106.404 161.811 105.6 162.381 104.786C162.952 103.973 163.507 103.151 164.044 102.316L163.177 102.03L162.961 103.694C162.52 107.58 162.184 111.508 162.299 115.424Z" fill="#364975"/>
<path d="M165.357 55.7376L175.73 75.1576C176.177 75.9936 177.144 76.4019 178.057 76.1478C179.97 75.6152 183.001 74.4042 183.75 71.9615C184.865 68.3219 175.503 50.1836 175.503 50.1836L165.357 55.7376Z" fill="#364975"/>
<path d="M154.213 30.5283L150.709 31.5768C149.652 31.893 148.992 32.9385 149.155 34.0293C149.632 37.2072 151.039 44.1388 155.021 53.3589C155.466 54.3891 156.613 54.9247 157.688 54.6032L160.793 53.674L154.213 30.5283Z" fill="white"/>
<path d="M171.475 21.1504L154.965 26.0896C152.537 26.8157 152.631 34.2965 155.175 42.7984C157.718 51.3004 161.748 57.6035 164.175 56.8774L180.685 51.9382L171.475 21.1504Z" fill="#364975"/>
<path d="M180.475 35.2297C183.019 43.7316 183.113 51.2124 180.685 51.9385C178.258 52.6646 174.228 46.3615 171.685 37.8595C169.141 29.3576 169.048 21.8768 171.475 21.1507C173.903 20.4246 177.932 26.7277 180.475 35.2297Z" fill="#364975"/>
<path d="M202.62 1.28027L172.035 24.8748L172.138 26.9747C172.531 34.9638 175.097 42.923 179.427 49.5848L217.547 49.8117L202.62 1.28027Z" fill="#F7B546"/>
<path d="M222.805 21.74C226.86 35.2959 225.137 47.7844 218.954 49.6339C214.166 51.0665 208.106 45.6977 203.733 36.9034C202.462 34.3436 201.331 31.4937 200.416 28.4374C199.591 25.6781 199.005 22.9607 198.646 20.3711C197.248 10.2355 199.346 2.01307 204.268 0.540774C210.45 -1.3084 218.75 8.18404 222.805 21.74Z" fill="#F7B546"/>
<path d="M210.176 25.519C212.694 33.9376 212.984 41.9441 211.36 47.2477C207.09 43.7073 202.935 36.8576 200.417 28.4386C197.898 20.0177 197.607 12.0093 199.232 6.70801C203.501 10.2457 207.657 17.0981 210.176 25.519Z" fill="#D2962F"/>
<path d="M210.316 19.4463L213.627 30.5137L203.733 36.9024C202.462 34.3427 201.331 31.4928 200.416 28.4365C199.591 25.6771 199.005 22.9598 198.645 20.3701L210.316 19.4463Z" fill="white"/>
<path d="M214.496 24.2255C215.41 27.2818 215.022 30.0976 213.628 30.5142C212.234 30.9313 210.363 28.7916 209.448 25.7352C208.534 22.6789 208.923 19.8631 210.316 19.4465C211.71 19.0294 213.581 21.1691 214.496 24.2255Z" fill="#364975"/>
<path d="M175.109 23.0693C175.187 31.7705 177.908 43.4318 184.514 49.4948C183.796 48.5411 183.129 47.5665 182.53 46.5529C178.391 39.3672 176.638 31.1455 175.109 23.0693Z" fill="white"/>
<path d="M161.761 53.7053C166.537 53.0485 171.205 51.6599 175.556 49.585C170.78 50.2361 166.115 51.6356 161.761 53.7053Z" fill="white"/>
<path d="M213.089 24.3244C213.27 25.1145 213.336 25.9796 213.074 26.7515C213 26.9905 212.805 27.217 212.721 27.1803C212.443 27.0693 212.181 26.4868 212.057 26.1591C211.644 24.9808 211.284 23.685 211.313 22.432C211.325 22.2009 211.405 21.9934 211.455 21.957C211.511 21.8858 211.787 21.9972 211.963 22.1752C212.55 22.7403 212.889 23.5384 213.089 24.3244ZM213.089 24.3244C212.878 23.457 212.078 20.351 210.807 21.7972C209.849 23.4335 210.619 26.5958 212.219 27.6132C214.006 28.3159 213.298 25.1891 213.089 24.3244Z" fill="#364975"/>
<path d="M205.206 1.57129C208.717 2.70382 211.89 4.8507 214.033 7.84188C216.097 10.8819 217.718 14.2287 219.198 17.5866C222.814 26.1866 226.206 37.0298 221.399 45.7794C220.456 47.2998 218.906 48.5721 217.057 48.6346C216.451 48.6763 215.828 48.613 215.239 48.4202C216.1 48.7892 217.078 48.8767 218.004 48.7267C220.237 48.3092 221.876 46.4116 222.781 44.4257C227.726 33.909 222.126 19.9232 216.674 10.5486C215.406 8.38693 213.931 6.28399 211.922 4.75033C209.935 3.23941 207.643 2.10044 205.206 1.57129Z" fill="white"/>
<path d="M169.734 76.3232C169.734 76.3232 166.151 68.4406 166.509 66.649C166.868 64.8574 170.943 60.4681 172.869 61.1848C174.795 61.9014 171.839 67.4554 171.839 67.4554C171.839 67.4554 176.631 73.2779 176.094 76.2338C175.557 79.1898 169.734 76.3232 169.734 76.3232Z" fill="#F0C1A3"/>
<path d="M134.76 69.9746C134.76 69.9746 150.385 78.2493 153.073 81.4738C155.76 84.6987 162.926 99.9265 162.926 99.9265L147.34 120.887C147.34 120.887 130.693 96.0725 134.76 69.9746Z" fill="#364975"/>
<path d="M137.862 75.4081C137.2 74.2987 136.985 73.2093 137.094 72.2082C136.209 71.5707 135.424 70.8602 134.716 70.0038C134.441 69.0072 133.801 66.5751 133.32 63.8328C132.895 61.3787 132.594 58.6853 132.806 56.5675V56.5588C132.904 55.5134 133.125 54.6097 133.524 53.9449L109.779 40.5928C109.797 40.6723 109.806 40.7431 109.823 40.8231C110.2 43.0275 113.062 60.3257 110.126 69.5019C108.34 70.3227 106.145 70.9064 103.42 71.0018C100.487 71.1049 97.6125 72.1499 95.4732 74.16C93.1634 76.3304 91.115 79.9818 91.0783 86.0679C93.2517 86.3395 95.4232 86.7667 97.5898 87.1565C104.067 88.3216 110.535 89.5606 117.028 90.6363C125.4 92.0234 133.989 92.3256 142.455 93.2657C142.087 86.9607 140.848 80.417 137.862 75.4081Z" fill="#F0C1A3"/>
<path opacity="0.5" d="M133.321 63.8326C120.412 65.4629 113.873 50.0464 113.634 49.4707C116.017 53.2539 119.473 55.1678 122.848 56.0803C127.003 57.2143 131.035 56.8333 132.727 56.5852C132.754 56.5765 132.78 56.5765 132.807 56.5674C132.594 58.6847 132.895 61.3786 133.321 63.8326Z" fill="#F0C1A3"/>
<path d="M109.539 69.292C109.539 69.292 124.767 86.1326 129.246 83.4452C133.725 80.7578 134.854 70.4874 134.854 70.4874C134.854 70.4874 150.207 83.8036 152.356 88.103C154.506 92.4028 154.327 100.823 148.952 114.08C143.578 127.338 145.593 145.253 145.593 145.253H96.4605C96.4605 145.253 100.581 136.654 99.327 126.621C98.0729 116.589 86.2488 84.5202 86.2488 84.5202C86.2488 84.5202 83.9197 69.8295 109.539 69.292Z" fill="#364975"/>
<path d="M109.091 71.084C112.861 76.3493 123.303 88.5894 130.544 85.4713C135.609 83.1297 136.185 75.688 135.785 70.8154C135.562 74.9967 135.032 79.9211 132.161 83.1453C128.848 86.6906 124.056 84.2244 120.783 81.8851C116.453 78.8023 112.715 74.9846 109.091 71.084Z" fill="#364975"/>
<path d="M144.538 90.9102C144.955 93.3919 145.903 95.7816 146.922 98.0648C150.854 106.036 148.911 111.566 146.693 119.592C149.353 113.967 151.62 107.29 149.256 101.17C147.879 97.6311 145.768 94.5059 144.538 90.9102Z" fill="white"/>
<path d="M121.54 119.082C123.994 119.369 126.979 119.536 129.44 119.786C130.316 119.868 131.197 119.955 132.114 119.987C130.524 119.082 128.723 118.648 126.917 118.482C125.109 118.34 123.26 118.463 121.54 119.082Z" fill="white"/>
<path d="M81.1569 114.706C80.154 113.769 79.1396 112.845 78.143 111.901C73.5235 107.523 68.7544 103.348 64.1799 98.9844C62.905 100.368 61.613 101.796 60.3066 103.271C57.3564 106.604 54.3439 110.163 51.3414 113.93C47.5086 118.738 47.3601 125.498 50.9642 130.48C53.3493 133.778 55.8659 137.051 58.5165 140.262C66.2336 149.618 75.0848 158.442 85.15 165.761L91.4229 159.824C91.4229 159.824 82.6247 144.116 72.0724 124.881C75.1754 121.385 78.2268 117.966 81.1569 114.706Z" fill="#F0C1A3"/>
<path d="M84.7273 163.983C84.7273 163.983 88.0585 177.654 91.4561 181.597C91.6728 181.849 92.0342 181.754 92.108 181.427C92.2637 180.738 92.2114 179.221 90.9603 175.946C90.9603 175.946 95.2405 182.032 96.5635 182.261C97.8866 182.491 93.5443 173.985 93.5443 173.985C93.5443 173.985 99.0843 180.312 100.279 180.032C101.474 179.751 96.1901 171.869 96.1901 171.869C96.1901 171.869 102.274 178.06 102.698 177.49C103.754 176.07 95.4458 167.145 96.4757 166.372C97.3878 165.687 100.13 166.929 101.418 167.805C101.689 167.989 102.035 167.908 102.181 167.609C102.467 167.024 102.646 166.015 101.352 165.005C99.3547 163.446 95.0034 160.156 88.4635 159.128L84.7273 163.983Z" fill="#F0C1A3"/>
<path d="M67.9747 120.709C68.7705 122.544 70.2568 124.038 72.095 124.83C71.3037 122.991 69.8099 121.505 67.9747 120.709Z" fill="#364975"/>
<path d="M59.9129 102.614L77.8281 119.096L100.402 95.8061C100.402 95.8061 101.865 71.637 97.0221 71.1976C89.8315 70.5458 66.7206 92.7608 59.9129 102.614Z" fill="#364975"/>
<path d="M92.7872 103.599L101.924 95L95.2954 111.572L92.7872 103.599Z" fill="#364975"/>
<path d="M145.469 34.9164C145.203 27.917 144.353 20.7139 141.943 14.5206C138.842 6.54664 124.222 3.44561 114.033 12.3055C109.298 16.4209 108.3 23.8823 108.582 30.6946C108.336 30.5749 108.115 30.4813 107.971 30.4453C105.897 29.9279 103.813 31.4915 103.192 33.4418C102.698 34.9948 103.032 36.7504 103.919 38.1178C104.657 39.2545 105.853 40.3146 107.132 40.8017C107.453 40.9241 108.885 41.162 109.896 41.0752C110.873 45.5557 113.153 49.6953 116.683 52.627C121.14 56.3303 126.837 57.8102 132.516 56.6318C136.928 55.7194 143.449 52.8929 145.071 48.3121C145.496 47.1159 145.531 45.8311 145.549 44.5641C145.558 44.2717 145.558 43.9793 145.558 43.6872C145.584 40.8616 145.584 37.9022 145.469 34.9164Z" fill="#F0C1A3"/>
<g opacity="0.5">
<path d="M145.558 43.6878C145.185 43.7851 144.795 43.8381 144.397 43.8381C141.899 43.8381 139.87 41.8094 139.87 39.3107C139.87 36.8123 141.899 34.7832 144.397 34.7832C144.769 34.7832 145.124 34.8275 145.469 34.9161C145.584 37.902 145.584 40.8614 145.558 43.6878Z" fill="#F0C1A3"/>
<path d="M117.427 40.3842C116.852 37.9494 118.36 35.5094 120.795 34.9345C123.23 34.3596 125.669 35.8673 126.244 38.3022C126.819 40.7371 125.312 43.177 122.877 43.752C120.442 44.3269 118.002 42.8191 117.427 40.3842Z" fill="#F0C1A3"/>
</g>
<path d="M137.482 30.5211C137.482 32.0002 138.068 33.1994 138.791 33.1994C139.513 33.1994 140.099 32.0002 140.099 30.5211C140.099 29.042 139.513 27.8428 138.791 27.8428C138.068 27.8428 137.482 29.042 137.482 30.5211Z" fill="#364975"/>
<path d="M141.461 26.9953C141.239 27.429 140.949 27.8066 140.576 28.138C140.206 28.4683 139.735 28.7247 139.207 28.8463L139.185 28.8512C138.924 28.9111 138.664 28.7482 138.605 28.4876C138.545 28.227 138.708 27.9672 138.968 27.9073C139.01 27.8975 139.055 27.8941 139.096 27.8956C139.828 27.9244 140.64 27.4793 141.194 26.8331L141.204 26.8222C141.26 26.7566 141.359 26.7491 141.424 26.8051C141.479 26.8536 141.493 26.9324 141.461 26.9953Z" fill="#364975"/>
<path d="M122.739 30.1589C123.294 30.8051 124.106 31.2502 124.837 31.2214C125.104 31.2108 125.33 31.4191 125.34 31.6861C125.351 31.9532 125.143 32.1785 124.876 32.1891C124.833 32.1907 124.79 32.1869 124.75 32.1778L124.726 32.1721C124.197 32.0509 123.727 31.7941 123.357 31.4638C122.983 31.1324 122.693 30.7547 122.472 30.321C122.432 30.2441 122.463 30.1502 122.54 30.1108C122.605 30.0775 122.684 30.0945 122.73 30.1483L122.739 30.1589Z" fill="#364975"/>
<path d="M124.481 31.2895C124.938 30.8036 125.413 30.4812 125.979 30.2339C126.536 29.9975 127.154 29.8748 127.758 29.9222C128.359 29.9752 128.935 30.1487 129.445 30.4202C129.704 30.5464 129.931 30.721 130.173 30.8691L130.823 31.4035C130.947 31.5054 130.965 31.6884 130.863 31.8122C130.766 31.93 130.596 31.9516 130.473 31.866L130.445 31.8463L129.813 31.4032C129.587 31.2899 129.373 31.1471 129.141 31.0573C128.684 30.8558 128.202 30.7581 127.731 30.7505C127.258 30.7498 126.799 30.8812 126.383 31.0956C125.975 31.3017 125.575 31.6433 125.32 31.9611L125.294 31.9944C125.108 32.2266 124.769 32.2641 124.537 32.0785C124.305 31.8929 124.267 31.5539 124.453 31.3217C124.462 31.3107 124.472 31.2994 124.481 31.2895Z" fill="#364975"/>
<path d="M138.037 38.623C137.583 39.5063 136.893 40.2688 136.065 40.8654C135.238 41.4623 134.203 41.846 133.136 41.8373C132.077 41.8108 131.036 41.4502 130.221 40.8317C129.794 40.5518 129.46 40.1605 129.092 39.8264C128.784 39.4302 128.483 39.0333 128.214 38.623C128.618 38.9189 128.986 39.234 129.357 39.5389C129.769 39.7889 130.137 40.0968 130.553 40.3067C131.366 40.7718 132.255 41.0271 133.14 41.0419C134.031 41.0635 134.918 40.7813 135.737 40.3404C136.554 39.8881 137.323 39.3037 138.037 38.623Z" fill="#364975"/>
<path d="M134.503 43.3711C134.13 43.7025 133.618 43.8222 133.126 43.8377C132.631 43.8218 132.127 43.6877 131.747 43.3711C132.231 43.448 132.671 43.5431 133.126 43.5256C133.581 43.5434 134.026 43.4643 134.503 43.3711Z" fill="#364975"/>
<path d="M129.856 21.2322C129.246 20.6905 128.555 20.514 127.829 20.4814C127.109 20.4652 126.37 20.5492 125.67 20.7879C124.963 21.0034 124.312 21.4003 123.769 21.8768C123.201 22.3359 122.803 22.9427 122.471 23.5404C122.303 23.8427 122.412 24.2241 122.714 24.3919C122.956 24.5264 123.248 24.4836 123.442 24.3059L123.495 24.2567C123.921 23.8647 124.329 23.4976 124.787 23.231C125.226 22.9348 125.72 22.773 126.213 22.645C126.71 22.5299 127.229 22.4677 127.759 22.4954C128.28 22.5132 128.837 22.5401 129.41 22.3999L129.576 22.3594C129.928 22.2734 130.143 21.9185 130.057 21.567C130.024 21.4318 129.952 21.3174 129.856 21.2322Z" fill="#364975"/>
<path d="M136.395 21.2322C137.005 20.6905 137.696 20.514 138.422 20.4814C139.141 20.4652 139.881 20.5492 140.581 20.7879C141.288 21.0034 141.938 21.4003 142.482 21.8768C143.049 22.3359 143.448 22.9427 143.78 23.5404C143.947 23.8427 143.839 24.2241 143.536 24.3919C143.294 24.5264 143.002 24.4836 142.808 24.3059L142.756 24.2567C142.33 23.8647 141.921 23.4976 141.464 23.231C141.025 22.9348 140.53 22.773 140.037 22.645C139.54 22.5299 139.021 22.4677 138.492 22.4954C137.97 22.5132 137.414 22.5401 136.84 22.3999L136.675 22.3594C136.323 22.2734 136.107 21.9185 136.193 21.567C136.226 21.4318 136.298 21.3174 136.395 21.2322Z" fill="#364975"/>
<path d="M133.428 26.4287C133.66 27.4378 133.83 28.4404 134.017 29.4328C134.211 30.4225 134.393 31.4107 134.674 32.3486C134.739 32.5842 134.812 32.816 134.896 33.0398C134.964 33.2231 135.129 33.5754 135.123 33.9042C135.157 34.5731 134.73 35.228 134.184 35.4924C133.627 35.8049 132.984 35.756 132.477 35.5837C131.962 35.3977 131.513 35.1189 131.125 34.775C132.064 35.128 133.161 35.403 133.821 34.9041C134.154 34.6519 134.333 34.3155 134.286 33.9493C134.268 33.7614 134.209 33.6417 134.089 33.3546C133.988 33.1042 133.9 32.8516 133.824 32.5978C133.538 31.5774 133.39 30.5475 133.333 29.5165C133.273 28.4862 133.293 27.4552 133.428 26.4287Z" fill="#364975"/>
<path d="M104.833 34.8894C104.818 34.2743 104.988 33.5937 105.531 33.1172C106.108 32.6452 106.928 32.6884 107.552 32.9225C108.213 33.1516 108.756 33.605 109.183 34.1126C109.621 34.6258 109.938 35.183 110.197 35.8227C110.29 36.0511 110.179 36.3117 109.951 36.4042C109.779 36.4739 109.588 36.4284 109.465 36.3038L109.436 36.2735C109.001 35.8311 108.453 35.3591 107.936 35.2129C107.677 35.1455 107.486 35.1538 107.306 35.2822C107.121 35.4133 106.978 35.6909 106.856 35.9773C106.628 36.5644 106.49 37.2515 106.992 37.5234C107.517 37.8223 108.287 37.7499 108.974 37.6586C108.326 37.9427 107.609 38.1825 106.796 37.9511C106.383 37.8174 106.054 37.3477 106.027 36.9242C105.987 36.5007 106.048 36.1155 106.154 35.7383C106.266 35.3659 106.422 34.9701 106.788 34.644C107.159 34.3107 107.743 34.233 108.158 34.3614C109.006 34.6167 109.578 35.1061 110.11 35.675L109.348 36.1258C108.938 35.1 108.265 34.0334 107.292 33.5524C106.806 33.3198 106.23 33.2016 105.769 33.4603C105.287 33.7099 104.997 34.3008 104.833 34.8894Z" fill="#364975"/>
<path d="M143.276 16.8411C142.692 14.3203 141.648 11.9897 139.869 10.0489C136.074 5.89982 130.012 4.77107 124.401 4.64191C120.617 4.54532 116.726 4.82447 113.318 6.48009C107.943 9.07052 104.708 14.5635 100.763 19.0353C94.8722 25.7214 86.8532 30.4939 78.1683 32.4931C71.0629 34.1271 63.6783 33.923 56.401 34.5786C49.1346 35.2237 41.6208 36.9005 36.0419 41.6087C31.6993 45.2634 28.7217 50.6057 23.6587 53.1749C20.8531 54.6154 17.6498 55.0453 14.5113 55.4646L9.37326 56.1312C1.81635 57.1308 -2.46152 65.5797 1.51561 72.0938C1.5372 72.1367 1.56938 72.1798 1.59097 72.2336C4.20299 76.4259 8.40587 79.683 9.99672 84.3695C11.4482 88.6584 10.4482 93.3559 10.7921 97.8705C11.3512 104.965 15.3821 111.543 20.9607 115.961C26.5396 120.379 33.5481 122.755 40.6209 123.529C43.2113 123.819 45.8237 123.895 48.4353 123.766C48.0914 120.326 49.0694 116.778 51.3375 113.93C54.3472 110.168 57.357 106.61 60.3023 103.267C60.3455 103.213 60.3989 103.159 60.4527 103.106L59.9152 102.611C66.7195 92.7646 89.8304 70.5462 97.0218 71.2018C98.7524 70.8041 100.375 70.8147 101.848 71.148C102.364 71.0621 102.891 71.0189 103.417 70.9977C106.137 70.9011 108.341 70.3314 110.125 69.5144C112.973 60.614 110.372 44.0927 109.856 41.0719C108.846 41.1579 107.448 40.9216 107.125 40.803C105.857 40.3193 104.653 39.255 103.922 38.1156C103.03 36.7505 102.697 34.9983 103.191 33.4397C103.767 31.6424 105.591 30.1883 107.501 30.3803C108.399 31.9079 109.481 33.3272 110.742 34.5722C111.133 34.9578 111.604 35.3525 112.152 35.3237C112.865 35.2858 113.323 34.5726 113.657 33.9419C114.088 33.1313 114.834 32.2965 115.264 31.4863C120.364 31.7776 125.546 29.5103 128.794 25.5669C129.788 24.359 130.603 23.0154 131.415 21.6776C132.501 19.8872 133.587 18.0963 134.673 16.3059C137.084 18.9936 140.887 23.8495 144.472 24.2802C144.473 24.279 144.587 20.7526 143.276 16.8411Z" fill="#E66D46"/>
</svg>
