<svg width="750" height="750" viewBox="0 0 750 750" fill="none" xmlns="http://www.w3.org/2000/svg">
<circle cx="375" cy="375" r="365" fill="#F5F5F5" stroke="#1976D2" stroke-width="20"/>
<g filter="url(#filter0_d_4_83)">
<path d="M76.6953 253.273C85.3542 255.324 93.1016 256.919 99.9375 258.059C107.001 258.97 112.926 259.654 117.711 260.109C123.408 260.793 128.421 261.021 132.75 260.793C138.219 260.565 145.055 259.768 153.258 258.4C161.461 257.033 170.12 255.666 179.234 254.299C188.349 252.932 197.35 251.792 206.236 250.881C215.123 249.969 222.87 249.855 229.479 250.539C236.087 251.223 243.036 252.818 250.328 255.324C257.62 257.603 264.456 260.793 270.836 264.895C277.216 268.768 282.685 273.553 287.242 279.25C292.027 284.947 294.99 291.555 296.129 299.074C297.268 306.366 296.585 314.227 294.078 322.658C291.572 330.861 287.584 338.951 282.115 346.926C276.646 354.673 269.811 361.851 261.607 368.459C253.404 375.067 244.29 380.422 234.264 384.523C226.288 387.486 217.63 389.764 208.287 391.359C200.312 392.727 190.969 393.638 180.26 394.094C169.778 394.322 158.613 393.182 146.764 390.676C145.169 397.284 144.257 403.436 144.029 409.133C144.029 414.602 144.257 419.501 144.713 423.83C145.396 428.843 146.308 433.4 147.447 437.502C148.814 441.604 150.523 446.389 152.574 451.857C154.397 456.415 156.448 461.997 158.727 468.605C161.233 474.986 164.195 482.163 167.613 490.139C163.512 490.139 159.524 490.253 155.65 490.48C151.777 490.48 148.245 490.594 145.055 490.822C141.409 491.05 137.991 491.278 134.801 491.506C131.155 491.734 127.053 492.189 122.496 492.873C118.622 493.329 113.723 494.012 107.799 494.924C102.102 495.835 95.6081 496.975 88.3164 498.342C93.1016 491.506 96.8613 485.24 99.5957 479.543C102.558 473.618 104.723 468.492 106.09 464.162C107.685 459.149 108.71 454.592 109.166 450.49C109.394 447.072 109.394 441.034 109.166 432.375C109.166 423.716 109.052 413.69 108.824 402.297C108.596 390.904 108.255 378.941 107.799 366.408C107.343 353.876 106.773 342.141 106.09 331.203C105.406 320.038 104.609 310.467 103.697 302.492C103.014 294.517 102.33 289.276 101.646 286.77C100.735 283.807 99.14 280.617 96.8613 277.199C95.0384 274.237 92.418 270.819 89 266.945C85.8099 262.844 81.7083 258.286 76.6953 253.273ZM147.447 320.607C147.219 322.886 147.105 325.279 147.105 327.785C147.105 332.57 147.447 338.723 148.131 346.242C149.726 350.116 151.663 353.306 153.941 355.812C156.448 358.319 159.068 360.256 161.803 361.623C164.765 362.99 167.727 363.902 170.689 364.357C173.652 364.813 176.614 365.041 179.576 365.041C186.412 364.813 193.59 363.218 201.109 360.256C211.135 355.926 218.199 349.774 222.301 341.799C226.402 333.824 228.567 325.62 228.795 317.189C229.023 308.758 227.542 301.011 224.352 293.947C221.389 286.883 217.743 282.098 213.414 279.592C209.768 277.997 205.097 277.313 199.4 277.541C194.387 277.769 188.121 279.022 180.602 281.301C173.082 283.579 163.854 287.681 152.916 293.605C151.777 297.707 150.865 301.353 150.182 304.543C149.498 307.733 148.928 310.581 148.473 313.088C148.017 315.822 147.675 318.329 147.447 320.607ZM396.617 245.412C404.592 245.412 411.77 246.779 418.15 249.514C424.758 252.02 430.797 254.868 436.266 258.059C441.962 261.249 447.317 264.211 452.33 266.945C457.343 269.452 462.47 270.705 467.711 270.705C471.812 270.477 476.484 269.908 481.725 268.996C486.282 268.085 491.523 266.717 497.447 264.895C503.6 262.844 510.436 259.882 517.955 256.008C510.436 263.299 504.283 269.452 499.498 274.465C494.941 279.25 491.409 283.238 488.902 286.428C485.94 290.074 483.775 292.922 482.408 294.973C481.041 297.479 478.99 301.239 476.256 306.252C473.749 310.809 470.331 316.962 466.002 324.709C461.673 332.229 456.204 342.141 449.596 354.445C449.596 338.723 448.001 326.532 444.811 317.873C441.848 309.214 438.544 302.606 434.898 298.049C430.569 292.808 425.67 289.504 420.201 288.137C415.188 287.453 410.175 288.365 405.162 290.871C400.149 293.15 395.136 296.568 390.123 301.125C385.338 305.682 380.667 311.151 376.109 317.531C371.78 323.684 367.792 330.178 364.146 337.014C360.729 343.85 357.88 350.799 355.602 357.863C353.323 364.699 351.842 371.079 351.158 377.004C350.475 382.245 350.361 388.397 350.816 395.461C351.272 402.297 352.298 409.361 353.893 416.652C355.488 423.716 357.538 430.666 360.045 437.502C362.551 444.338 365.628 450.49 369.273 455.959C373.147 461.2 377.477 465.529 382.262 468.947C387.047 472.137 392.516 473.618 398.668 473.391C405.504 472.935 412.226 470.884 418.834 467.238C424.531 464.276 430.341 459.719 436.266 453.566C442.19 447.186 447.317 438.186 451.646 426.564L502.232 435.793C487.649 453.566 473.408 466.896 459.508 475.783C445.836 484.67 433.531 490.936 422.594 494.582C409.833 498.684 397.757 500.62 386.363 500.393C372.008 498.798 358.564 494.468 346.031 487.404C333.499 480.34 322.675 471.796 313.561 461.77C304.674 451.516 297.724 440.35 292.711 428.273C287.698 416.197 285.533 404.348 286.217 392.727C286.673 384.979 288.268 375.979 291.002 365.725C293.736 355.243 297.382 344.533 301.939 333.596C306.725 322.658 312.421 311.949 319.029 301.467C325.637 290.985 332.929 281.643 340.904 273.439C348.88 265.008 357.538 258.286 366.881 253.273C376.451 248.033 386.363 245.412 396.617 245.412ZM502.232 251.564C504.739 252.704 507.701 253.501 511.119 253.957C514.765 254.413 518.183 254.641 521.373 254.641C525.247 254.641 529.234 254.527 533.336 254.299C537.438 254.071 542.451 253.615 548.375 252.932C553.16 252.476 559.085 251.906 566.148 251.223C573.212 250.539 581.074 249.628 589.732 248.488C586.542 250.083 583.808 251.792 581.529 253.615C579.251 255.438 577.314 257.261 575.719 259.084C573.896 261.135 572.415 263.186 571.275 265.236C569.68 267.971 567.516 272.756 564.781 279.592C562.275 286.2 559.654 293.605 556.92 301.809C554.413 310.012 552.135 318.329 550.084 326.76C548.261 335.191 547.236 342.368 547.008 348.293C546.78 353.306 546.552 359.003 546.324 365.383C546.096 370.852 545.868 377.574 545.641 385.549C545.413 393.524 545.185 402.639 544.957 412.893C561.363 401.044 574.01 391.587 582.896 384.523C591.783 377.232 598.277 371.649 602.379 367.775C607.164 363.446 610.012 360.37 610.924 358.547C610.696 357.18 610.126 355.699 609.215 354.104C608.076 352.736 606.48 351.141 604.43 349.318C602.379 347.495 599.303 345.445 595.201 343.166C601.126 343.85 606.253 344.305 610.582 344.533C615.139 344.761 619.013 344.989 622.203 345.217C625.849 345.445 629.039 345.445 631.773 345.217C634.736 345.217 638.382 345.103 642.711 344.875C650.23 344.647 661.852 344.305 677.574 343.85C662.307 351.825 650.23 358.661 641.344 364.357C636.331 367.548 631.887 370.51 628.014 373.244C624.14 376.206 620.152 379.283 616.051 382.473C612.405 385.207 608.189 388.397 603.404 392.043C598.847 395.689 594.29 399.562 589.732 403.664C597.708 416.652 604.658 427.362 610.582 435.793C616.734 444.224 621.861 451.06 625.963 456.301C630.748 462.453 634.964 467.352 638.609 470.998C642.255 474.416 647.04 478.29 652.965 482.619C657.978 486.493 664.472 491.05 672.447 496.291C680.65 501.304 690.562 507.115 702.184 513.723C696.259 512.583 690.562 511.786 685.094 511.33C679.625 511.102 674.954 511.102 671.08 511.33C666.295 511.558 661.965 512.014 658.092 512.697C653.99 513.609 649.433 514.748 644.42 516.115C640.09 517.255 634.964 518.736 629.039 520.559C623.342 522.609 617.076 525.23 610.24 528.42C614.57 525.23 617.76 522.154 619.811 519.191C622.089 516.457 623.684 514.178 624.596 512.355C625.507 510.077 625.849 508.14 625.621 506.545C624.482 504.266 621.861 499.595 617.76 492.531C613.886 486.607 608.189 477.948 600.67 466.555C593.15 455.161 582.441 439.667 568.541 420.07C567.857 420.298 566.718 420.982 565.123 422.121C563.756 423.26 561.705 424.855 558.971 426.906C556.236 428.729 552.59 431.464 548.033 435.109L557.262 494.924C555.211 495.835 552.932 496.633 550.426 497.316C548.147 498 545.982 498.57 543.932 499.025C541.425 499.709 538.919 500.165 536.412 500.393C533.906 500.62 530.943 501.076 527.525 501.76C524.563 502.215 521.031 502.785 516.93 503.469C512.828 504.38 508.157 505.406 502.916 506.545C505.878 504.494 508.271 502.102 510.094 499.367C511.917 496.861 513.398 494.468 514.537 492.189C515.676 489.683 516.702 487.062 517.613 484.328C518.069 482.049 518.525 476.125 518.98 466.555C519.664 456.984 520.234 445.591 520.689 432.375C521.145 418.931 521.487 404.576 521.715 389.309C522.171 374.042 522.398 359.686 522.398 346.242C522.398 332.57 522.285 320.721 522.057 310.695C521.829 300.441 521.373 293.833 520.689 290.871C519.55 287.225 518.183 283.352 516.588 279.25C515.221 275.604 513.284 271.503 510.777 266.945C508.499 262.16 505.65 257.033 502.232 251.564Z" fill="#1976D2"/>
</g>
<path d="M647.388 345.988L560.325 271.321V170.518C560.325 164.336 555.315 159.32 549.127 159.32H490.887C484.7 159.32 479.684 164.336 479.684 170.518V202.029L382.621 118.852C378.366 115.049 371.939 115.049 367.684 118.852L102.924 345.985C99.3303 349.053 98.0543 354.047 99.7262 358.464C101.403 362.881 105.669 365.777 110.393 365.699H189.986V575.365C189.986 581.553 194.997 586.563 201.184 586.563H300.491C306.678 586.563 311.689 581.553 311.689 575.365C311.689 569.178 306.678 564.167 300.491 564.167H212.387V354.501C212.387 348.313 207.371 343.303 201.184 343.303H140.481L375.161 142.303L609.841 343.303H549.138C542.951 343.303 537.935 348.313 537.935 354.501V564.167H460.133C453.95 564.167 448.935 569.178 448.935 575.365C448.935 581.553 453.95 586.563 460.133 586.563H549.138C555.325 586.563 560.336 581.553 560.336 575.365V365.699H640.153C644.877 365.777 649.143 362.881 650.82 358.464C652.492 354.047 651.216 349.053 647.622 345.985L647.388 345.988ZM502.081 181.721H537.92V252.133L502.081 221.368V181.721ZM447.8 372.201H451.232V375.633C451.232 381.821 456.248 386.836 462.435 386.836H494.618C500.8 386.836 505.816 381.821 505.816 375.633V309.925V309.93C505.612 303.889 500.659 299.097 494.618 299.102H462.358C456.175 299.102 451.16 304.118 451.16 310.3V313.732H448.696L435.483 301.936L435.477 301.941C433.425 300.107 430.764 299.097 428.014 299.102H369.03C299.514 299.102 243.514 341.138 243.514 376.009C243.514 382.196 248.524 387.207 254.712 387.207H334.753L340.43 390.566L347.899 427.003L339.388 621.883H339.383C339.243 624.946 340.357 627.93 342.472 630.144C344.592 632.357 347.519 633.613 350.581 633.607H410.316C413.378 633.613 416.311 632.357 418.425 630.144C420.545 627.93 421.66 624.946 421.519 621.883L412.482 426.63L419.951 389.969L447.8 372.201ZM473.56 321.504H483.638V364.81L473.56 364.805V321.504ZM269.64 364.81C281.213 345.622 318.994 321.504 369.02 321.504H423.749L436.963 333.301H436.968C439.025 335.129 441.681 336.139 444.437 336.134H451.155V350.249H444.437C442.291 350.254 440.192 350.874 438.39 352.04L406.806 372.347H353.494L343.561 366.3C341.822 365.269 339.832 364.727 337.811 364.732L269.64 364.81ZM362.004 611.21L370.139 426.037C370.249 425.146 370.249 424.24 370.139 423.35L364.316 394.079H396.723L390.9 423.35C390.515 424.209 390.239 425.11 390.077 426.037L398.14 610.61L362.004 611.21Z" fill="#1976D2" fill-opacity="0.15"/>
<defs>
<filter id="filter0_d_4_83" x="76.6953" y="245.412" width="634.488" height="295.008" filterUnits="userSpaceOnUse" color-interpolation-filters="sRGB">
<feFlood flood-opacity="0" result="BackgroundImageFix"/>
<feColorMatrix in="SourceAlpha" type="matrix" values="0 0 0 0 0 0 0 0 0 0 0 0 0 0 0 0 0 0 127 0" result="hardAlpha"/>
<feOffset dx="5" dy="8"/>
<feGaussianBlur stdDeviation="2"/>
<feComposite in2="hardAlpha" operator="out"/>
<feColorMatrix type="matrix" values="0 0 0 0 0 0 0 0 0 0 0 0 0 0 0 0 0 0 0.5 0"/>
<feBlend mode="normal" in2="BackgroundImageFix" result="effect1_dropShadow_4_83"/>
<feBlend mode="normal" in="SourceGraphic" in2="effect1_dropShadow_4_83" result="shape"/>
</filter>
</defs>
</svg>
