<svg width="750" height="750" viewBox="0 0 750 750" fill="none" xmlns="http://www.w3.org/2000/svg">
<circle cx="375" cy="375" r="365" fill="#D94F14" stroke="#D94F14" stroke-width="20"/>
<path d="M647.388 345.988L560.325 271.321V170.518C560.325 164.336 555.315 159.32 549.127 159.32H490.887C484.7 159.32 479.684 164.336 479.684 170.518V202.029L382.621 118.852C378.366 115.049 371.939 115.049 367.684 118.852L102.924 345.985C99.3303 349.053 98.0543 354.048 99.7262 358.464C101.403 362.881 105.669 365.777 110.393 365.699H189.986V575.365C189.986 581.553 194.997 586.563 201.184 586.563H300.491C306.678 586.563 311.689 581.553 311.689 575.365C311.689 569.178 306.678 564.167 300.491 564.167H212.387V354.501C212.387 348.313 207.371 343.303 201.184 343.303H140.481L375.161 142.303L609.841 343.303H549.138C542.951 343.303 537.935 348.313 537.935 354.501V564.167H460.133C453.95 564.167 448.935 569.178 448.935 575.365C448.935 581.553 453.95 586.563 460.133 586.563H549.138C555.325 586.563 560.336 581.553 560.336 575.365V365.699H640.153C644.877 365.777 649.143 362.881 650.82 358.464C652.492 354.048 651.216 349.053 647.622 345.985L647.388 345.988ZM502.081 181.721H537.92V252.133L502.081 221.368V181.721ZM447.8 372.201H451.232V375.633C451.232 381.821 456.248 386.836 462.435 386.836H494.618C500.8 386.836 505.816 381.821 505.816 375.633V309.925V309.93C505.612 303.889 500.659 299.097 494.618 299.102H462.358C456.175 299.102 451.16 304.118 451.16 310.3V313.732H448.696L435.483 301.936L435.477 301.941C433.425 300.107 430.764 299.097 428.014 299.102H369.03C299.514 299.102 243.514 341.138 243.514 376.009C243.514 382.196 248.524 387.207 254.712 387.207H334.753L340.43 390.566L347.899 427.003L339.388 621.883H339.383C339.243 624.946 340.357 627.93 342.472 630.144C344.592 632.357 347.519 633.613 350.581 633.607H410.316C413.378 633.613 416.311 632.357 418.425 630.144C420.545 627.93 421.66 624.946 421.519 621.883L412.482 426.63L419.951 389.969L447.8 372.201ZM473.56 321.504H483.638V364.81L473.56 364.805V321.504ZM269.64 364.81C281.213 345.622 318.994 321.504 369.02 321.504H423.749L436.963 333.301H436.968C439.025 335.129 441.681 336.139 444.437 336.134H451.155V350.249H444.437C442.291 350.254 440.192 350.874 438.39 352.04L406.806 372.347H353.494L343.561 366.3C341.822 365.269 339.832 364.727 337.811 364.732L269.64 364.81ZM362.004 611.21L370.139 426.037C370.249 425.146 370.249 424.24 370.139 423.35L364.316 394.079H396.723L390.9 423.35C390.515 424.209 390.238 425.11 390.077 426.037L398.14 610.61L362.004 611.21Z" fill="white" fill-opacity="0.1"/>
<g filter="url(#filter0_d_28_2)">
<path d="M148.303 428.314C152.176 428.314 155.663 428.979 158.762 430.307C161.971 431.524 164.904 432.908 167.561 434.457C170.327 436.007 172.928 437.445 175.363 438.773C177.798 439.991 180.288 440.6 182.834 440.6C184.826 440.489 187.095 440.212 189.641 439.77C191.854 439.327 194.4 438.663 197.277 437.777C200.266 436.781 203.586 435.342 207.238 433.461C203.586 437.003 200.598 439.991 198.273 442.426C196.06 444.75 194.344 446.687 193.127 448.236C191.688 450.007 190.637 451.391 189.973 452.387C189.309 453.604 188.312 455.43 186.984 457.865C185.767 460.079 184.107 463.067 182.004 466.83C179.901 470.482 177.245 475.297 174.035 481.273C174.035 473.637 173.26 467.715 171.711 463.51C170.272 459.304 168.667 456.094 166.896 453.881C164.794 451.335 162.414 449.73 159.758 449.066C157.323 448.734 154.888 449.177 152.453 450.395C150.018 451.501 147.583 453.161 145.148 455.375C142.824 457.589 140.555 460.245 138.342 463.344C136.239 466.332 134.302 469.486 132.531 472.807C130.871 476.127 129.488 479.503 128.381 482.934C127.274 486.254 126.555 489.353 126.223 492.23C125.891 494.776 125.835 497.764 126.057 501.195C126.278 504.516 126.776 507.947 127.551 511.488C128.326 514.919 129.322 518.295 130.539 521.615C131.757 524.936 133.251 527.924 135.021 530.58C136.903 533.126 139.006 535.229 141.33 536.889C143.654 538.438 146.311 539.158 149.299 539.047C152.619 538.826 155.884 537.829 159.094 536.059C161.861 534.62 164.683 532.406 167.561 529.418C170.438 526.319 172.928 521.947 175.031 516.303L199.602 520.785C192.518 529.418 185.601 535.893 178.85 540.209C172.209 544.525 166.232 547.569 160.92 549.34C154.722 551.332 148.856 552.273 143.322 552.162C136.35 551.387 129.82 549.285 123.732 545.854C117.645 542.423 112.388 538.272 107.961 533.402C103.645 528.422 100.269 522.999 97.834 517.133C95.3991 511.267 94.3477 505.512 94.6797 499.867C94.901 496.104 95.6758 491.732 97.0039 486.752C98.332 481.661 100.103 476.459 102.316 471.146C104.641 465.834 107.408 460.632 110.617 455.541C113.827 450.45 117.368 445.912 121.242 441.928C125.116 437.833 129.322 434.568 133.859 432.133C138.508 429.587 143.322 428.314 148.303 428.314ZM193.625 433.129C197.499 433.572 200.764 433.904 203.42 434.125C206.076 434.236 208.179 434.346 209.729 434.457C211.61 434.568 213.104 434.623 214.211 434.623C216.092 434.623 218.251 434.568 220.686 434.457C222.788 434.346 225.223 434.18 227.99 433.959C230.868 433.627 233.967 433.129 237.287 432.465C235.738 434.125 234.465 435.73 233.469 437.279C232.473 438.718 231.698 440.046 231.145 441.264C230.48 442.592 229.927 443.809 229.484 444.916C229.042 446.355 228.544 448.568 227.99 451.557C227.437 454.102 226.828 457.699 226.164 462.348C225.611 466.996 224.891 473.083 224.006 480.609C227.769 480.72 231.034 480.775 233.801 480.775C236.568 480.665 238.892 480.609 240.773 480.609H246.252C247.801 480.499 249.572 480.388 251.564 480.277C254.885 480.167 259.921 479.835 266.672 479.281C267.225 474.19 267.502 469.818 267.502 466.166C267.613 462.403 267.557 459.249 267.336 456.703C267.115 453.826 266.783 451.391 266.34 449.398C266.008 448.292 265.51 446.964 264.846 445.414C264.292 444.086 263.518 442.481 262.521 440.6C261.636 438.607 260.419 436.228 258.869 433.461C261.747 433.904 264.292 434.236 266.506 434.457C268.83 434.568 270.767 434.678 272.316 434.789C274.087 434.9 275.581 434.955 276.799 434.955C278.016 434.955 279.621 434.9 281.613 434.789C283.273 434.678 285.321 434.623 287.756 434.623C290.191 434.512 293.179 434.346 296.721 434.125C295.835 435.674 295.061 437.279 294.396 438.939C293.732 440.6 293.179 442.094 292.736 443.422C292.294 444.971 291.851 446.521 291.408 448.07C290.855 450.395 290.357 453.77 289.914 458.197C289.582 462.624 289.25 467.549 288.918 472.973C288.697 478.396 288.475 484.04 288.254 489.906C288.143 495.772 288.033 501.306 287.922 506.508C287.922 511.71 287.977 516.358 288.088 520.453C288.199 524.438 288.42 527.26 288.752 528.92C289.084 530.912 289.637 532.96 290.412 535.062C291.076 536.944 291.962 538.992 293.068 541.205C294.175 543.308 295.614 545.3 297.385 547.182L257.375 550.17C259.035 548.62 260.363 547.126 261.359 545.688C262.355 544.138 263.13 542.81 263.684 541.703C264.237 540.486 264.624 539.324 264.846 538.217C264.956 536.889 265.122 534.564 265.344 531.244C265.565 528.477 265.786 524.548 266.008 519.457C266.229 514.366 266.451 507.615 266.672 499.203C265.122 499.203 263.241 499.258 261.027 499.369C258.924 499.369 256.932 499.424 255.051 499.535C252.837 499.646 250.513 499.701 248.078 499.701C245.643 499.812 243.098 499.923 240.441 500.033C238.228 500.255 235.738 500.476 232.971 500.697C230.314 500.808 227.658 500.974 225.002 501.195C224.781 505.844 224.781 509.939 225.002 513.48C225.223 516.911 225.555 519.844 225.998 522.279C226.441 525.157 226.994 527.647 227.658 529.75C228.322 531.742 229.042 533.734 229.816 535.727C230.48 537.497 231.255 539.379 232.141 541.371C233.137 543.363 234.133 545.134 235.129 546.684C233.026 546.462 231.089 546.296 229.318 546.186C227.548 545.964 225.998 545.743 224.67 545.521C223.12 545.411 221.626 545.3 220.188 545.189C218.749 545.189 217.033 545.134 215.041 545.023C213.27 544.913 211.057 544.857 208.4 544.857C205.744 544.747 202.645 544.691 199.104 544.691C201.206 542.589 202.867 540.541 204.084 538.549C205.412 536.446 206.353 534.564 206.906 532.904C207.57 530.912 208.013 529.086 208.234 527.426C208.345 525.987 208.4 523.275 208.4 519.291C208.511 515.307 208.511 510.769 208.4 505.678C208.4 500.476 208.345 495.053 208.234 489.408C208.124 483.653 207.958 478.285 207.736 473.305C207.626 468.324 207.46 464.063 207.238 460.521C207.128 456.869 207.017 454.6 206.906 453.715C206.353 451.723 205.523 449.564 204.416 447.24C203.42 445.359 202.092 443.201 200.432 440.766C198.771 438.22 196.503 435.674 193.625 433.129ZM361.301 425.824C367.277 426.046 373.309 427.152 379.396 429.145C385.594 431.026 391.294 434.125 396.496 438.441C401.698 442.647 406.125 448.126 409.777 454.877C413.43 461.518 415.699 469.652 416.584 479.281C417.359 487.139 416.363 494.942 413.596 502.689C410.939 510.326 407.232 517.354 402.473 523.773C397.714 530.193 392.235 535.671 386.037 540.209C379.839 544.636 373.641 547.569 367.443 549.008C363.68 549.893 359.53 550.004 354.992 549.34C350.565 548.565 346.027 547.182 341.379 545.189C336.841 543.087 332.359 540.43 327.932 537.221C323.615 534.011 319.686 530.359 316.145 526.264C312.603 522.058 309.615 517.52 307.18 512.65C304.855 507.781 303.417 502.689 302.863 497.377C302.31 492.95 302.255 488.08 302.697 482.768C303.251 477.344 304.302 471.977 305.852 466.664C307.512 461.241 309.781 456.039 312.658 451.059C315.646 445.967 319.41 441.54 323.947 437.777C328.485 433.904 333.798 430.915 339.885 428.812C346.083 426.599 353.221 425.603 361.301 425.824ZM331.584 493.061C330.035 504.903 331.141 514.421 334.904 521.615C338.778 528.809 344.589 533.181 352.336 534.73C356.099 535.505 359.696 534.73 363.127 532.406C366.669 529.971 369.878 526.485 372.756 521.947C375.633 517.41 378.124 512.097 380.227 506.01C382.329 499.923 383.879 493.559 384.875 486.918C385.871 480.277 385.926 474.301 385.041 468.988C384.266 463.565 382.883 458.972 380.891 455.209C378.898 451.335 376.464 448.347 373.586 446.244C370.819 444.141 367.941 442.979 364.953 442.758C359.751 442.426 355.214 443.809 351.34 446.908C347.466 449.896 344.201 453.826 341.545 458.695C338.889 463.565 336.73 469.044 335.07 475.131C333.521 481.218 332.359 487.195 331.584 493.061ZM408.283 434.291C411.936 434.734 415.256 435.066 418.244 435.287C421.122 435.508 423.612 435.73 425.715 435.951C428.15 436.173 430.308 436.339 432.189 436.449C434.182 436.449 436.727 436.394 439.826 436.283C442.482 436.173 445.858 436.007 449.953 435.785C454.048 435.564 459.084 435.176 465.061 434.623C462.183 436.283 459.803 437.943 457.922 439.604C456.151 441.264 454.768 442.758 453.771 444.086C452.554 445.635 451.669 447.185 451.115 448.734C450.783 450.837 450.894 454.932 451.447 461.02C451.669 463.565 452.001 466.719 452.443 470.482C452.997 474.135 453.661 478.507 454.436 483.598C455.321 488.578 456.372 494.333 457.59 500.863C458.918 507.393 460.412 514.809 462.072 523.109C464.286 516.801 466.112 511.212 467.551 506.342C468.99 501.361 470.207 497.1 471.203 493.559C472.31 489.574 473.251 486.033 474.025 482.934C474.8 479.724 475.741 475.574 476.848 470.482C477.733 466.166 478.895 460.577 480.334 453.715C481.773 446.853 483.544 438.386 485.646 428.314L491.623 429.145C492.176 437.003 492.73 443.92 493.283 449.896C493.947 455.873 494.501 460.964 494.943 465.17C495.386 470.04 495.829 474.245 496.271 477.787C496.714 480.997 497.378 484.704 498.264 488.91C499.038 492.452 500.035 496.824 501.252 502.025C502.469 507.117 504.074 512.872 506.066 519.291C508.059 511.433 509.829 504.405 511.379 498.207C513.039 492.009 514.423 486.531 515.529 481.771C516.747 477.012 517.743 472.917 518.518 469.486C519.403 466.055 520.122 463.178 520.676 460.854C521.893 455.32 522.613 451.612 522.834 449.73C522.723 447.628 522.225 445.58 521.34 443.588C520.565 441.817 519.348 439.88 517.688 437.777C516.027 435.674 513.592 433.627 510.383 431.635C517.134 431.856 522.613 432.022 526.818 432.133C531.135 432.133 534.566 432.133 537.111 432.133H543.752H549.729C551.942 432.133 554.82 432.133 558.361 432.133C562.014 432.022 566.662 431.856 572.307 431.635C567.437 434.18 563.508 436.505 560.52 438.607C557.531 440.71 555.207 442.481 553.547 443.92C551.555 445.691 550.116 447.185 549.23 448.402C548.345 450.616 546.906 455.596 544.914 463.344C544.029 466.664 543.033 470.814 541.926 475.795C540.819 480.665 539.491 486.531 537.941 493.393C536.503 500.255 534.842 508.279 532.961 517.465C531.079 526.54 528.977 536.944 526.652 548.676L497.932 545.688L485.646 494.057C483.765 503.464 482.271 511.101 481.164 516.967C480.057 522.722 479.227 527.204 478.674 530.414C478.01 534.288 477.622 537.11 477.512 538.881C477.401 540.43 477.29 541.924 477.18 543.363C477.069 544.581 476.903 545.909 476.682 547.348C476.571 548.786 476.405 550.115 476.184 551.332H446.799C443.921 538.715 441.32 527.592 438.996 517.963C436.783 508.223 434.79 499.701 433.02 492.396C431.249 485.092 429.699 478.894 428.371 473.803C427.154 468.712 426.047 464.451 425.051 461.02C422.837 453.051 421.232 448.126 420.236 446.244C419.462 445.359 418.465 444.307 417.248 443.09C416.252 442.094 415.035 440.876 413.596 439.438C412.046 437.888 410.275 436.173 408.283 434.291ZM555.705 432.465C559.468 433.018 562.788 433.406 565.666 433.627C568.654 433.848 571.145 434.07 573.137 434.291C575.461 434.512 577.453 434.623 579.113 434.623H585.588C589.904 434.623 597.043 434.457 607.004 434.125C604.569 434.9 602.521 436.007 600.861 437.445C599.312 438.884 598.039 440.378 597.043 441.928C595.826 443.699 594.94 445.525 594.387 447.406C593.723 449.73 593.114 452.829 592.561 456.703C592.007 460.134 591.454 464.617 590.9 470.15C590.458 475.684 590.015 482.602 589.572 490.902C594.331 485.479 598.482 480.665 602.023 476.459C605.676 472.253 608.83 468.546 611.486 465.336C614.143 462.126 616.356 459.359 618.127 457.035C620.008 454.711 621.558 452.719 622.775 451.059C625.653 447.296 627.313 444.75 627.756 443.422C627.867 442.647 627.811 441.706 627.59 440.6C627.368 439.714 627.036 438.663 626.594 437.445C626.151 436.117 625.487 434.678 624.602 433.129C629.029 433.35 632.792 433.516 635.891 433.627C639.1 433.738 641.757 433.848 643.859 433.959C646.294 434.07 648.286 434.125 649.836 434.125H656.809C659.354 434.125 662.674 434.125 666.77 434.125C670.865 434.014 676.011 433.904 682.209 433.793C678.114 434.789 674.24 436.117 670.588 437.777C666.936 439.438 663.671 441.042 660.793 442.592C657.473 444.473 654.374 446.41 651.496 448.402C648.618 450.616 645.409 453.217 641.867 456.205C638.879 458.751 635.393 461.905 631.408 465.668C627.424 469.32 623.107 473.581 618.459 478.451C623.439 488.191 627.756 496.215 631.408 502.523C635.171 508.721 638.326 513.702 640.871 517.465C643.749 521.892 646.184 525.268 648.176 527.592C650.168 529.695 652.492 531.853 655.148 534.066C657.362 535.948 660.129 538.051 663.449 540.375C666.77 542.589 670.588 544.747 674.904 546.85L627.59 549.174C628.254 548.288 628.641 547.237 628.752 546.02C628.973 544.691 629.084 543.474 629.084 542.367C629.084 541.15 628.973 539.822 628.752 538.383C628.309 536.612 627.147 533.734 625.266 529.75C623.716 526.319 621.337 521.505 618.127 515.307C614.917 508.998 610.49 500.697 604.846 490.404L590.734 505.18C590.181 508.721 589.904 511.931 589.904 514.809C589.904 517.686 590.015 520.066 590.236 521.947C590.568 524.271 591.011 526.264 591.564 527.924C592.229 529.584 593.169 531.465 594.387 533.568C595.383 535.45 596.711 537.663 598.371 540.209C600.031 542.755 602.134 545.577 604.68 548.676C602.134 548.012 599.589 547.569 597.043 547.348C594.497 547.016 592.173 546.794 590.07 546.684C587.635 546.573 585.311 546.628 583.098 546.85C580.773 547.071 578.062 547.403 574.963 547.846C572.307 548.288 569.042 548.842 565.168 549.506C561.294 550.17 556.867 551 551.887 551.996C554.322 550.557 556.258 549.008 557.697 547.348C559.136 545.688 560.298 544.083 561.184 542.533C562.18 540.762 562.844 539.047 563.176 537.387C563.397 535.948 563.563 532.849 563.674 528.09C563.895 523.331 564.006 517.797 564.006 511.488C564.117 505.069 564.117 498.318 564.006 491.234C563.895 484.151 563.785 477.51 563.674 471.312C563.563 465.115 563.397 459.857 563.176 455.541C563.065 451.114 562.954 448.402 562.844 447.406C562.512 445.857 562.069 444.197 561.516 442.426C560.962 440.876 560.188 439.271 559.191 437.611C558.306 435.84 557.144 434.125 555.705 432.465Z" fill="white"/>
</g>
<g filter="url(#filter1_d_28_2)">
<path d="M144.211 172.195C150.396 173.66 155.93 174.799 160.812 175.613C165.858 176.264 170.09 176.753 173.508 177.078C177.577 177.566 181.158 177.729 184.25 177.566C188.156 177.404 193.039 176.834 198.898 175.857C204.758 174.881 210.943 173.904 217.453 172.928C223.964 171.951 230.393 171.137 236.74 170.486C243.088 169.835 248.622 169.754 253.342 170.242C258.062 170.73 263.026 171.87 268.234 173.66C273.443 175.288 278.326 177.566 282.883 180.496C287.44 183.263 291.346 186.681 294.602 190.75C298.02 194.819 300.135 199.539 300.949 204.91C301.763 210.118 301.275 215.734 299.484 221.756C297.694 227.615 294.846 233.393 290.939 239.09C287.033 244.624 282.15 249.751 276.291 254.471C270.432 259.191 263.921 263.016 256.76 265.945C251.063 268.061 244.878 269.689 238.205 270.828C232.508 271.805 225.835 272.456 218.186 272.781C210.699 272.944 202.723 272.13 194.26 270.34C193.12 275.06 192.469 279.454 192.307 283.523C192.307 287.43 192.469 290.929 192.795 294.021C193.283 297.602 193.934 300.857 194.748 303.787C195.725 306.717 196.945 310.135 198.41 314.041C199.712 317.296 201.177 321.284 202.805 326.004C204.595 330.561 206.711 335.688 209.152 341.385C206.223 341.385 203.374 341.466 200.607 341.629C197.84 341.629 195.318 341.71 193.039 341.873C190.435 342.036 187.993 342.199 185.715 342.361C183.111 342.524 180.181 342.85 176.926 343.338C174.159 343.663 170.66 344.152 166.428 344.803C162.359 345.454 157.72 346.268 152.512 347.244C155.93 342.361 158.615 337.885 160.568 333.816C162.684 329.585 164.23 325.923 165.207 322.83C166.346 319.249 167.079 315.994 167.404 313.064C167.567 310.623 167.567 306.31 167.404 300.125C167.404 293.94 167.323 286.779 167.16 278.641C166.997 270.503 166.753 261.958 166.428 253.006C166.102 244.054 165.695 235.672 165.207 227.859C164.719 219.884 164.149 213.048 163.498 207.352C163.01 201.655 162.521 197.911 162.033 196.121C161.382 194.005 160.243 191.727 158.615 189.285C157.313 187.169 155.441 184.728 153 181.961C150.721 179.031 147.792 175.776 144.211 172.195ZM194.748 220.291C194.585 221.919 194.504 223.628 194.504 225.418C194.504 228.836 194.748 233.23 195.236 238.602C196.376 241.368 197.759 243.647 199.387 245.438C201.177 247.228 203.049 248.611 205.002 249.588C207.118 250.564 209.234 251.215 211.35 251.541C213.465 251.867 215.581 252.029 217.697 252.029C222.58 251.867 227.707 250.727 233.078 248.611C240.24 245.519 245.285 241.124 248.215 235.428C251.145 229.731 252.691 223.872 252.854 217.85C253.016 211.827 251.958 206.294 249.68 201.248C247.564 196.202 244.96 192.785 241.867 190.994C239.263 189.855 235.926 189.367 231.857 189.529C228.277 189.692 223.801 190.587 218.43 192.215C213.059 193.842 206.467 196.772 198.654 201.004C197.84 203.934 197.189 206.538 196.701 208.816C196.213 211.095 195.806 213.13 195.48 214.92C195.155 216.873 194.911 218.663 194.748 220.291ZM289.963 168.777C295.171 169.591 299.891 170.324 304.123 170.975C308.355 171.463 312.017 171.87 315.109 172.195C318.69 172.684 321.864 173.09 324.631 173.416C328.049 173.904 333.176 173.335 340.012 171.707C346.848 169.917 354.335 168.289 362.473 166.824C370.773 165.197 379.237 164.301 387.863 164.139C396.49 163.813 404.383 165.359 411.545 168.777C418.706 172.195 424.566 175.613 429.123 179.031C433.68 182.449 437.261 186.111 439.865 190.018C442.632 193.761 444.585 197.749 445.725 201.98C446.864 206.212 447.515 210.851 447.678 215.896C447.515 223.383 445.725 230.626 442.307 237.625C440.842 240.555 438.889 243.647 436.447 246.902C434.169 249.995 431.32 253.006 427.902 255.936C424.484 258.865 420.415 261.632 415.695 264.236C411.138 266.84 405.767 269.119 399.582 271.072C405.604 272.863 410.568 274.979 414.475 277.42C418.544 279.861 421.799 282.14 424.24 284.256C427.17 286.86 429.367 289.383 430.832 291.824C432.622 295.242 433.843 298.172 434.494 300.613C435.145 303.055 435.552 305.415 435.715 307.693C436.04 309.809 436.447 312.007 436.936 314.285C437.424 316.564 438.482 319.168 440.109 322.098C441.411 324.376 442.958 326.736 444.748 329.178C446.376 331.294 448.247 333.572 450.363 336.014C452.642 338.455 455.409 340.815 458.664 343.094C454.107 343.257 449.875 343.338 445.969 343.338C442.225 343.338 438.97 343.338 436.203 343.338C432.948 343.338 429.855 343.257 426.926 343.094C423.996 342.931 420.334 342.85 415.939 342.85C412.196 342.85 407.395 342.85 401.535 342.85C395.839 342.85 388.921 342.931 380.783 343.094C384.364 340.327 387.294 337.56 389.572 334.793C391.851 332.026 393.641 329.503 394.943 327.225C396.408 324.62 397.466 322.098 398.117 319.656C398.931 315.262 399.012 310.704 398.361 305.984C397.873 301.915 396.571 297.439 394.455 292.557C392.339 287.511 388.921 282.465 384.201 277.42C379.481 278.234 375.493 278.885 372.238 279.373C369.146 279.699 366.46 280.024 364.182 280.35C361.577 280.675 359.462 280.919 357.834 281.082C356.369 281.245 354.742 281.408 352.951 281.57C351.486 281.733 349.859 281.977 348.068 282.303C346.441 282.465 344.895 282.71 343.43 283.035C343.104 290.034 343.104 296.137 343.43 301.346C343.755 306.391 344.162 310.623 344.65 314.041C345.301 318.11 346.034 321.609 346.848 324.539C347.661 327.469 348.801 330.317 350.266 333.084C351.405 335.363 352.87 337.804 354.66 340.408C356.451 342.85 358.485 344.884 360.764 346.512C356.532 346.512 352.463 346.512 348.557 346.512C344.813 346.512 341.395 346.43 338.303 346.268C334.722 346.268 331.304 346.186 328.049 346.023C324.794 345.861 321.132 345.779 317.062 345.779C313.645 345.779 309.576 345.779 304.855 345.779C300.298 345.779 295.334 345.861 289.963 346.023C294.195 341.629 297.531 337.885 299.973 334.793C302.414 331.701 304.286 329.096 305.588 326.98C307.053 324.702 307.948 322.749 308.273 321.121C308.599 318.517 308.843 313.878 309.006 307.205C309.331 300.369 309.576 292.557 309.738 283.768C309.901 274.979 309.982 265.783 309.982 256.18C309.982 246.577 309.901 237.625 309.738 229.324C309.576 220.861 309.413 213.618 309.25 207.596C309.087 201.574 308.924 197.749 308.762 196.121C308.273 193.191 307.215 190.262 305.588 187.332C304.286 184.728 302.414 181.798 299.973 178.543C297.531 175.288 294.195 172.033 289.963 168.777ZM382.248 254.715C383.876 253.738 385.259 252.762 386.398 251.785C387.538 250.809 388.514 249.262 389.328 247.146C390.142 244.868 390.793 241.694 391.281 237.625C391.932 233.556 392.665 228.022 393.479 221.023C394.13 214.025 393.641 208.247 392.014 203.689C390.549 199.132 388.514 195.551 385.91 192.947C383.469 190.18 380.702 188.309 377.609 187.332C374.68 186.193 372.076 185.623 369.797 185.623C365.24 185.623 360.764 187.007 356.369 189.773C351.975 192.54 348.638 196.284 346.359 201.004C345.546 203.12 344.813 206.619 344.162 211.502C343.674 215.734 343.348 221.593 343.186 229.08C343.023 236.567 343.267 246.414 343.918 258.621C350.103 259.598 355.555 260.005 360.275 259.842C364.995 259.516 368.983 258.947 372.238 258.133C376.145 257.319 379.481 256.18 382.248 254.715ZM545.334 162.918C554.123 163.243 562.993 164.871 571.945 167.801C581.06 170.568 589.442 175.125 597.092 181.473C604.742 187.658 611.252 195.714 616.623 205.643C621.994 215.408 625.331 227.371 626.633 241.531C627.772 253.087 626.307 264.562 622.238 275.955C618.332 287.186 612.88 297.521 605.881 306.961C598.882 316.401 590.826 324.458 581.711 331.131C572.596 337.641 563.482 341.954 554.367 344.07C548.833 345.372 542.73 345.535 536.057 344.559C529.546 343.419 522.873 341.385 516.037 338.455C509.364 335.363 502.772 331.456 496.262 326.736C489.914 322.016 484.136 316.645 478.928 310.623C473.719 304.438 469.325 297.765 465.744 290.604C462.326 283.442 460.21 275.955 459.396 268.143C458.583 261.632 458.501 254.471 459.152 246.658C459.966 238.683 461.512 230.789 463.791 222.977C466.232 215.001 469.569 207.352 473.801 200.027C478.195 192.54 483.729 186.03 490.402 180.496C497.076 174.799 504.888 170.405 513.84 167.312C522.954 164.057 533.452 162.592 545.334 162.918ZM501.633 261.795C499.354 279.21 500.982 293.208 506.516 303.787C512.212 314.367 520.757 320.796 532.15 323.074C537.684 324.214 542.974 323.074 548.02 319.656C553.228 316.076 557.948 310.949 562.18 304.275C566.411 297.602 570.074 289.79 573.166 280.838C576.258 271.886 578.537 262.527 580.002 252.762C581.467 242.996 581.548 234.207 580.246 226.395C579.107 218.419 577.072 211.665 574.143 206.131C571.213 200.434 567.632 196.04 563.4 192.947C559.331 189.855 555.1 188.146 550.705 187.82C543.055 187.332 536.382 189.367 530.686 193.924C524.989 198.318 520.188 204.096 516.281 211.258C512.375 218.419 509.201 226.476 506.76 235.428C504.481 244.38 502.772 253.169 501.633 261.795Z" fill="white"/>
</g>
<defs>
<filter id="filter0_d_28_2" x="94.1816" y="425.492" width="597.027" height="138.836" filterUnits="userSpaceOnUse" color-interpolation-filters="sRGB">
<feFlood flood-opacity="0" result="BackgroundImageFix"/>
<feColorMatrix in="SourceAlpha" type="matrix" values="0 0 0 0 0 0 0 0 0 0 0 0 0 0 0 0 0 0 127 0" result="hardAlpha"/>
<feOffset dx="5" dy="8"/>
<feGaussianBlur stdDeviation="2"/>
<feComposite in2="hardAlpha" operator="out"/>
<feColorMatrix type="matrix" values="0 0 0 0 0 0 0 0 0 0 0 0 0 0 0 0 0 0 0.5 0"/>
<feBlend mode="normal" in2="BackgroundImageFix" result="effect1_dropShadow_28_2"/>
<feBlend mode="normal" in="SourceGraphic" in2="effect1_dropShadow_28_2" result="shape"/>
</filter>
<filter id="filter1_d_28_2" x="144.211" y="162.43" width="493.131" height="196.814" filterUnits="userSpaceOnUse" color-interpolation-filters="sRGB">
<feFlood flood-opacity="0" result="BackgroundImageFix"/>
<feColorMatrix in="SourceAlpha" type="matrix" values="0 0 0 0 0 0 0 0 0 0 0 0 0 0 0 0 0 0 127 0" result="hardAlpha"/>
<feOffset dx="5" dy="8"/>
<feGaussianBlur stdDeviation="2"/>
<feComposite in2="hardAlpha" operator="out"/>
<feColorMatrix type="matrix" values="0 0 0 0 0 0 0 0 0 0 0 0 0 0 0 0 0 0 0.5 0"/>
<feBlend mode="normal" in2="BackgroundImageFix" result="effect1_dropShadow_28_2"/>
<feBlend mode="normal" in="SourceGraphic" in2="effect1_dropShadow_28_2" result="shape"/>
</filter>
</defs>
</svg>
