<svg width="750" height="750" viewBox="0 0 750 750" fill="none" xmlns="http://www.w3.org/2000/svg">
<circle cx="375" cy="375" r="365" fill="#F5F5F5" stroke="#D94F14" stroke-width="20"/>
<path d="M647.388 345.988L560.325 271.321V170.518C560.325 164.336 555.315 159.32 549.127 159.32H490.887C484.7 159.32 479.684 164.336 479.684 170.518V202.029L382.621 118.852C378.366 115.049 371.939 115.049 367.684 118.852L102.924 345.985C99.3303 349.053 98.0543 354.048 99.7262 358.464C101.403 362.881 105.669 365.777 110.393 365.699H189.986V575.365C189.986 581.553 194.997 586.563 201.184 586.563H300.491C306.678 586.563 311.689 581.553 311.689 575.365C311.689 569.178 306.678 564.167 300.491 564.167H212.387V354.501C212.387 348.313 207.371 343.303 201.184 343.303H140.481L375.161 142.303L609.841 343.303H549.138C542.951 343.303 537.935 348.313 537.935 354.501V564.167H460.133C453.95 564.167 448.935 569.178 448.935 575.365C448.935 581.553 453.95 586.563 460.133 586.563H549.138C555.325 586.563 560.336 581.553 560.336 575.365V365.699H640.153C644.877 365.777 649.143 362.881 650.82 358.464C652.492 354.048 651.216 349.053 647.622 345.985L647.388 345.988ZM502.081 181.721H537.92V252.133L502.081 221.368V181.721ZM447.8 372.201H451.232V375.633C451.232 381.821 456.248 386.836 462.435 386.836H494.618C500.8 386.836 505.816 381.821 505.816 375.633V309.925V309.93C505.612 303.889 500.659 299.097 494.618 299.102H462.358C456.175 299.102 451.16 304.118 451.16 310.3V313.732H448.696L435.483 301.936L435.477 301.941C433.425 300.107 430.764 299.097 428.014 299.102H369.03C299.514 299.102 243.514 341.138 243.514 376.009C243.514 382.196 248.524 387.207 254.712 387.207H334.753L340.43 390.566L347.899 427.003L339.388 621.883H339.383C339.243 624.946 340.357 627.93 342.472 630.144C344.592 632.357 347.519 633.613 350.581 633.607H410.316C413.378 633.613 416.311 632.357 418.425 630.144C420.545 627.93 421.66 624.946 421.519 621.883L412.482 426.63L419.951 389.969L447.8 372.201ZM473.56 321.504H483.638V364.81L473.56 364.805V321.504ZM269.64 364.81C281.213 345.622 318.994 321.504 369.02 321.504H423.749L436.963 333.301H436.968C439.025 335.129 441.681 336.139 444.437 336.134H451.155V350.249H444.437C442.291 350.254 440.192 350.874 438.39 352.04L406.806 372.347H353.494L343.561 366.3C341.822 365.269 339.832 364.727 337.811 364.732L269.64 364.81ZM362.004 611.21L370.139 426.037C370.249 425.146 370.249 424.24 370.139 423.35L364.316 394.079H396.723L390.9 423.35C390.515 424.209 390.238 425.11 390.077 426.037L398.14 610.61L362.004 611.21Z" fill="#D94F14" fill-opacity="0.1"/>
<g filter="url(#filter0_d_28_7)">
<path d="M140.303 431.314C144.176 431.314 147.663 431.979 150.762 433.307C153.971 434.524 156.904 435.908 159.561 437.457C162.327 439.007 164.928 440.445 167.363 441.773C169.798 442.991 172.288 443.6 174.834 443.6C176.826 443.489 179.095 443.212 181.641 442.77C183.854 442.327 186.4 441.663 189.277 440.777C192.266 439.781 195.586 438.342 199.238 436.461C195.586 440.003 192.598 442.991 190.273 445.426C188.06 447.75 186.344 449.687 185.127 451.236C183.688 453.007 182.637 454.391 181.973 455.387C181.309 456.604 180.312 458.43 178.984 460.865C177.767 463.079 176.107 466.067 174.004 469.83C171.901 473.482 169.245 478.297 166.035 484.273C166.035 476.637 165.26 470.715 163.711 466.51C162.272 462.304 160.667 459.094 158.896 456.881C156.794 454.335 154.414 452.73 151.758 452.066C149.323 451.734 146.888 452.177 144.453 453.395C142.018 454.501 139.583 456.161 137.148 458.375C134.824 460.589 132.555 463.245 130.342 466.344C128.239 469.332 126.302 472.486 124.531 475.807C122.871 479.127 121.488 482.503 120.381 485.934C119.274 489.254 118.555 492.353 118.223 495.23C117.891 497.776 117.835 500.764 118.057 504.195C118.278 507.516 118.776 510.947 119.551 514.488C120.326 517.919 121.322 521.295 122.539 524.615C123.757 527.936 125.251 530.924 127.021 533.58C128.903 536.126 131.006 538.229 133.33 539.889C135.654 541.438 138.311 542.158 141.299 542.047C144.619 541.826 147.884 540.829 151.094 539.059C153.861 537.62 156.683 535.406 159.561 532.418C162.438 529.319 164.928 524.947 167.031 519.303L191.602 523.785C184.518 532.418 177.601 538.893 170.85 543.209C164.209 547.525 158.232 550.569 152.92 552.34C146.722 554.332 140.856 555.273 135.322 555.162C128.35 554.387 121.82 552.285 115.732 548.854C109.645 545.423 104.388 541.272 99.9609 536.402C95.6445 531.422 92.2689 525.999 89.834 520.133C87.3991 514.267 86.3477 508.512 86.6797 502.867C86.901 499.104 87.6758 494.732 89.0039 489.752C90.332 484.661 92.1029 479.459 94.3164 474.146C96.6406 468.834 99.4076 463.632 102.617 458.541C105.827 453.45 109.368 448.912 113.242 444.928C117.116 440.833 121.322 437.568 125.859 435.133C130.508 432.587 135.322 431.314 140.303 431.314ZM185.625 436.129C189.499 436.572 192.764 436.904 195.42 437.125C198.076 437.236 200.179 437.346 201.729 437.457C203.61 437.568 205.104 437.623 206.211 437.623C208.092 437.623 210.251 437.568 212.686 437.457C214.788 437.346 217.223 437.18 219.99 436.959C222.868 436.627 225.967 436.129 229.287 435.465C227.738 437.125 226.465 438.73 225.469 440.279C224.473 441.718 223.698 443.046 223.145 444.264C222.48 445.592 221.927 446.809 221.484 447.916C221.042 449.355 220.544 451.568 219.99 454.557C219.437 457.102 218.828 460.699 218.164 465.348C217.611 469.996 216.891 476.083 216.006 483.609C219.769 483.72 223.034 483.775 225.801 483.775C228.568 483.665 230.892 483.609 232.773 483.609H238.252C239.801 483.499 241.572 483.388 243.564 483.277C246.885 483.167 251.921 482.835 258.672 482.281C259.225 477.19 259.502 472.818 259.502 469.166C259.613 465.403 259.557 462.249 259.336 459.703C259.115 456.826 258.783 454.391 258.34 452.398C258.008 451.292 257.51 449.964 256.846 448.414C256.292 447.086 255.518 445.481 254.521 443.6C253.636 441.607 252.419 439.228 250.869 436.461C253.747 436.904 256.292 437.236 258.506 437.457C260.83 437.568 262.767 437.678 264.316 437.789C266.087 437.9 267.581 437.955 268.799 437.955C270.016 437.955 271.621 437.9 273.613 437.789C275.273 437.678 277.321 437.623 279.756 437.623C282.191 437.512 285.179 437.346 288.721 437.125C287.835 438.674 287.061 440.279 286.396 441.939C285.732 443.6 285.179 445.094 284.736 446.422C284.294 447.971 283.851 449.521 283.408 451.07C282.855 453.395 282.357 456.77 281.914 461.197C281.582 465.624 281.25 470.549 280.918 475.973C280.697 481.396 280.475 487.04 280.254 492.906C280.143 498.772 280.033 504.306 279.922 509.508C279.922 514.71 279.977 519.358 280.088 523.453C280.199 527.438 280.42 530.26 280.752 531.92C281.084 533.912 281.637 535.96 282.412 538.062C283.076 539.944 283.962 541.992 285.068 544.205C286.175 546.308 287.614 548.3 289.385 550.182L249.375 553.17C251.035 551.62 252.363 550.126 253.359 548.688C254.355 547.138 255.13 545.81 255.684 544.703C256.237 543.486 256.624 542.324 256.846 541.217C256.956 539.889 257.122 537.564 257.344 534.244C257.565 531.477 257.786 527.548 258.008 522.457C258.229 517.366 258.451 510.615 258.672 502.203C257.122 502.203 255.241 502.258 253.027 502.369C250.924 502.369 248.932 502.424 247.051 502.535C244.837 502.646 242.513 502.701 240.078 502.701C237.643 502.812 235.098 502.923 232.441 503.033C230.228 503.255 227.738 503.476 224.971 503.697C222.314 503.808 219.658 503.974 217.002 504.195C216.781 508.844 216.781 512.939 217.002 516.48C217.223 519.911 217.555 522.844 217.998 525.279C218.441 528.157 218.994 530.647 219.658 532.75C220.322 534.742 221.042 536.734 221.816 538.727C222.48 540.497 223.255 542.379 224.141 544.371C225.137 546.363 226.133 548.134 227.129 549.684C225.026 549.462 223.089 549.296 221.318 549.186C219.548 548.964 217.998 548.743 216.67 548.521C215.12 548.411 213.626 548.3 212.188 548.189C210.749 548.189 209.033 548.134 207.041 548.023C205.27 547.913 203.057 547.857 200.4 547.857C197.744 547.747 194.645 547.691 191.104 547.691C193.206 545.589 194.867 543.541 196.084 541.549C197.412 539.446 198.353 537.564 198.906 535.904C199.57 533.912 200.013 532.086 200.234 530.426C200.345 528.987 200.4 526.275 200.4 522.291C200.511 518.307 200.511 513.769 200.4 508.678C200.4 503.476 200.345 498.053 200.234 492.408C200.124 486.653 199.958 481.285 199.736 476.305C199.626 471.324 199.46 467.063 199.238 463.521C199.128 459.869 199.017 457.6 198.906 456.715C198.353 454.723 197.523 452.564 196.416 450.24C195.42 448.359 194.092 446.201 192.432 443.766C190.771 441.22 188.503 438.674 185.625 436.129ZM353.301 428.824C359.277 429.046 365.309 430.152 371.396 432.145C377.594 434.026 383.294 437.125 388.496 441.441C393.698 445.647 398.125 451.126 401.777 457.877C405.43 464.518 407.699 472.652 408.584 482.281C409.359 490.139 408.363 497.942 405.596 505.689C402.939 513.326 399.232 520.354 394.473 526.773C389.714 533.193 384.235 538.671 378.037 543.209C371.839 547.636 365.641 550.569 359.443 552.008C355.68 552.893 351.53 553.004 346.992 552.34C342.565 551.565 338.027 550.182 333.379 548.189C328.841 546.087 324.359 543.43 319.932 540.221C315.615 537.011 311.686 533.359 308.145 529.264C304.603 525.058 301.615 520.52 299.18 515.65C296.855 510.781 295.417 505.689 294.863 500.377C294.31 495.95 294.255 491.08 294.697 485.768C295.251 480.344 296.302 474.977 297.852 469.664C299.512 464.241 301.781 459.039 304.658 454.059C307.646 448.967 311.41 444.54 315.947 440.777C320.485 436.904 325.798 433.915 331.885 431.812C338.083 429.599 345.221 428.603 353.301 428.824ZM323.584 496.061C322.035 507.903 323.141 517.421 326.904 524.615C330.778 531.809 336.589 536.181 344.336 537.73C348.099 538.505 351.696 537.73 355.127 535.406C358.669 532.971 361.878 529.485 364.756 524.947C367.633 520.41 370.124 515.097 372.227 509.01C374.329 502.923 375.879 496.559 376.875 489.918C377.871 483.277 377.926 477.301 377.041 471.988C376.266 466.565 374.883 461.972 372.891 458.209C370.898 454.335 368.464 451.347 365.586 449.244C362.819 447.141 359.941 445.979 356.953 445.758C351.751 445.426 347.214 446.809 343.34 449.908C339.466 452.896 336.201 456.826 333.545 461.695C330.889 466.565 328.73 472.044 327.07 478.131C325.521 484.218 324.359 490.195 323.584 496.061ZM400.283 437.291C403.936 437.734 407.256 438.066 410.244 438.287C413.122 438.508 415.612 438.73 417.715 438.951C420.15 439.173 422.308 439.339 424.189 439.449C426.182 439.449 428.727 439.394 431.826 439.283C434.482 439.173 437.858 439.007 441.953 438.785C446.048 438.564 451.084 438.176 457.061 437.623C454.183 439.283 451.803 440.943 449.922 442.604C448.151 444.264 446.768 445.758 445.771 447.086C444.554 448.635 443.669 450.185 443.115 451.734C442.783 453.837 442.894 457.932 443.447 464.02C443.669 466.565 444.001 469.719 444.443 473.482C444.997 477.135 445.661 481.507 446.436 486.598C447.321 491.578 448.372 497.333 449.59 503.863C450.918 510.393 452.412 517.809 454.072 526.109C456.286 519.801 458.112 514.212 459.551 509.342C460.99 504.361 462.207 500.1 463.203 496.559C464.31 492.574 465.251 489.033 466.025 485.934C466.8 482.724 467.741 478.574 468.848 473.482C469.733 469.166 470.895 463.577 472.334 456.715C473.773 449.853 475.544 441.386 477.646 431.314L483.623 432.145C484.176 440.003 484.73 446.92 485.283 452.896C485.947 458.873 486.501 463.964 486.943 468.17C487.386 473.04 487.829 477.245 488.271 480.787C488.714 483.997 489.378 487.704 490.264 491.91C491.038 495.452 492.035 499.824 493.252 505.025C494.469 510.117 496.074 515.872 498.066 522.291C500.059 514.433 501.829 507.405 503.379 501.207C505.039 495.009 506.423 489.531 507.529 484.771C508.747 480.012 509.743 475.917 510.518 472.486C511.403 469.055 512.122 466.178 512.676 463.854C513.893 458.32 514.613 454.612 514.834 452.73C514.723 450.628 514.225 448.58 513.34 446.588C512.565 444.817 511.348 442.88 509.688 440.777C508.027 438.674 505.592 436.627 502.383 434.635C509.134 434.856 514.613 435.022 518.818 435.133C523.135 435.133 526.566 435.133 529.111 435.133H535.752H541.729C543.942 435.133 546.82 435.133 550.361 435.133C554.014 435.022 558.662 434.856 564.307 434.635C559.437 437.18 555.508 439.505 552.52 441.607C549.531 443.71 547.207 445.481 545.547 446.92C543.555 448.691 542.116 450.185 541.23 451.402C540.345 453.616 538.906 458.596 536.914 466.344C536.029 469.664 535.033 473.814 533.926 478.795C532.819 483.665 531.491 489.531 529.941 496.393C528.503 503.255 526.842 511.279 524.961 520.465C523.079 529.54 520.977 539.944 518.652 551.676L489.932 548.688L477.646 497.057C475.765 506.464 474.271 514.101 473.164 519.967C472.057 525.722 471.227 530.204 470.674 533.414C470.01 537.288 469.622 540.11 469.512 541.881C469.401 543.43 469.29 544.924 469.18 546.363C469.069 547.581 468.903 548.909 468.682 550.348C468.571 551.786 468.405 553.115 468.184 554.332H438.799C435.921 541.715 433.32 530.592 430.996 520.963C428.783 511.223 426.79 502.701 425.02 495.396C423.249 488.092 421.699 481.894 420.371 476.803C419.154 471.712 418.047 467.451 417.051 464.02C414.837 456.051 413.232 451.126 412.236 449.244C411.462 448.359 410.465 447.307 409.248 446.09C408.252 445.094 407.035 443.876 405.596 442.438C404.046 440.888 402.275 439.173 400.283 437.291ZM547.705 435.465C551.468 436.018 554.788 436.406 557.666 436.627C560.654 436.848 563.145 437.07 565.137 437.291C567.461 437.512 569.453 437.623 571.113 437.623H577.588C581.904 437.623 589.043 437.457 599.004 437.125C596.569 437.9 594.521 439.007 592.861 440.445C591.312 441.884 590.039 443.378 589.043 444.928C587.826 446.699 586.94 448.525 586.387 450.406C585.723 452.73 585.114 455.829 584.561 459.703C584.007 463.134 583.454 467.617 582.9 473.15C582.458 478.684 582.015 485.602 581.572 493.902C586.331 488.479 590.482 483.665 594.023 479.459C597.676 475.253 600.83 471.546 603.486 468.336C606.143 465.126 608.356 462.359 610.127 460.035C612.008 457.711 613.558 455.719 614.775 454.059C617.653 450.296 619.313 447.75 619.756 446.422C619.867 445.647 619.811 444.706 619.59 443.6C619.368 442.714 619.036 441.663 618.594 440.445C618.151 439.117 617.487 437.678 616.602 436.129C621.029 436.35 624.792 436.516 627.891 436.627C631.1 436.738 633.757 436.848 635.859 436.959C638.294 437.07 640.286 437.125 641.836 437.125H648.809C651.354 437.125 654.674 437.125 658.77 437.125C662.865 437.014 668.011 436.904 674.209 436.793C670.114 437.789 666.24 439.117 662.588 440.777C658.936 442.438 655.671 444.042 652.793 445.592C649.473 447.473 646.374 449.41 643.496 451.402C640.618 453.616 637.409 456.217 633.867 459.205C630.879 461.751 627.393 464.905 623.408 468.668C619.424 472.32 615.107 476.581 610.459 481.451C615.439 491.191 619.756 499.215 623.408 505.523C627.171 511.721 630.326 516.702 632.871 520.465C635.749 524.892 638.184 528.268 640.176 530.592C642.168 532.695 644.492 534.853 647.148 537.066C649.362 538.948 652.129 541.051 655.449 543.375C658.77 545.589 662.588 547.747 666.904 549.85L619.59 552.174C620.254 551.288 620.641 550.237 620.752 549.02C620.973 547.691 621.084 546.474 621.084 545.367C621.084 544.15 620.973 542.822 620.752 541.383C620.309 539.612 619.147 536.734 617.266 532.75C615.716 529.319 613.337 524.505 610.127 518.307C606.917 511.998 602.49 503.697 596.846 493.404L582.734 508.18C582.181 511.721 581.904 514.931 581.904 517.809C581.904 520.686 582.015 523.066 582.236 524.947C582.568 527.271 583.011 529.264 583.564 530.924C584.229 532.584 585.169 534.465 586.387 536.568C587.383 538.45 588.711 540.663 590.371 543.209C592.031 545.755 594.134 548.577 596.68 551.676C594.134 551.012 591.589 550.569 589.043 550.348C586.497 550.016 584.173 549.794 582.07 549.684C579.635 549.573 577.311 549.628 575.098 549.85C572.773 550.071 570.062 550.403 566.963 550.846C564.307 551.288 561.042 551.842 557.168 552.506C553.294 553.17 548.867 554 543.887 554.996C546.322 553.557 548.258 552.008 549.697 550.348C551.136 548.688 552.298 547.083 553.184 545.533C554.18 543.762 554.844 542.047 555.176 540.387C555.397 538.948 555.563 535.849 555.674 531.09C555.895 526.331 556.006 520.797 556.006 514.488C556.117 508.069 556.117 501.318 556.006 494.234C555.895 487.151 555.785 480.51 555.674 474.312C555.563 468.115 555.397 462.857 555.176 458.541C555.065 454.114 554.954 451.402 554.844 450.406C554.512 448.857 554.069 447.197 553.516 445.426C552.962 443.876 552.188 442.271 551.191 440.611C550.306 438.84 549.144 437.125 547.705 435.465Z" fill="#D94F14"/>
</g>
<g filter="url(#filter1_d_28_7)">
<path d="M136.211 175.195C142.396 176.66 147.93 177.799 152.812 178.613C157.858 179.264 162.09 179.753 165.508 180.078C169.577 180.566 173.158 180.729 176.25 180.566C180.156 180.404 185.039 179.834 190.898 178.857C196.758 177.881 202.943 176.904 209.453 175.928C215.964 174.951 222.393 174.137 228.74 173.486C235.088 172.835 240.622 172.754 245.342 173.242C250.062 173.73 255.026 174.87 260.234 176.66C265.443 178.288 270.326 180.566 274.883 183.496C279.44 186.263 283.346 189.681 286.602 193.75C290.02 197.819 292.135 202.539 292.949 207.91C293.763 213.118 293.275 218.734 291.484 224.756C289.694 230.615 286.846 236.393 282.939 242.09C279.033 247.624 274.15 252.751 268.291 257.471C262.432 262.191 255.921 266.016 248.76 268.945C243.063 271.061 236.878 272.689 230.205 273.828C224.508 274.805 217.835 275.456 210.186 275.781C202.699 275.944 194.723 275.13 186.26 273.34C185.12 278.06 184.469 282.454 184.307 286.523C184.307 290.43 184.469 293.929 184.795 297.021C185.283 300.602 185.934 303.857 186.748 306.787C187.725 309.717 188.945 313.135 190.41 317.041C191.712 320.296 193.177 324.284 194.805 329.004C196.595 333.561 198.711 338.688 201.152 344.385C198.223 344.385 195.374 344.466 192.607 344.629C189.84 344.629 187.318 344.71 185.039 344.873C182.435 345.036 179.993 345.199 177.715 345.361C175.111 345.524 172.181 345.85 168.926 346.338C166.159 346.663 162.66 347.152 158.428 347.803C154.359 348.454 149.72 349.268 144.512 350.244C147.93 345.361 150.615 340.885 152.568 336.816C154.684 332.585 156.23 328.923 157.207 325.83C158.346 322.249 159.079 318.994 159.404 316.064C159.567 313.623 159.567 309.31 159.404 303.125C159.404 296.94 159.323 289.779 159.16 281.641C158.997 273.503 158.753 264.958 158.428 256.006C158.102 247.054 157.695 238.672 157.207 230.859C156.719 222.884 156.149 216.048 155.498 210.352C155.01 204.655 154.521 200.911 154.033 199.121C153.382 197.005 152.243 194.727 150.615 192.285C149.313 190.169 147.441 187.728 145 184.961C142.721 182.031 139.792 178.776 136.211 175.195ZM186.748 223.291C186.585 224.919 186.504 226.628 186.504 228.418C186.504 231.836 186.748 236.23 187.236 241.602C188.376 244.368 189.759 246.647 191.387 248.438C193.177 250.228 195.049 251.611 197.002 252.588C199.118 253.564 201.234 254.215 203.35 254.541C205.465 254.867 207.581 255.029 209.697 255.029C214.58 254.867 219.707 253.727 225.078 251.611C232.24 248.519 237.285 244.124 240.215 238.428C243.145 232.731 244.691 226.872 244.854 220.85C245.016 214.827 243.958 209.294 241.68 204.248C239.564 199.202 236.96 195.785 233.867 193.994C231.263 192.855 227.926 192.367 223.857 192.529C220.277 192.692 215.801 193.587 210.43 195.215C205.059 196.842 198.467 199.772 190.654 204.004C189.84 206.934 189.189 209.538 188.701 211.816C188.213 214.095 187.806 216.13 187.48 217.92C187.155 219.873 186.911 221.663 186.748 223.291ZM281.963 171.777C287.171 172.591 291.891 173.324 296.123 173.975C300.355 174.463 304.017 174.87 307.109 175.195C310.69 175.684 313.864 176.09 316.631 176.416C320.049 176.904 325.176 176.335 332.012 174.707C338.848 172.917 346.335 171.289 354.473 169.824C362.773 168.197 371.237 167.301 379.863 167.139C388.49 166.813 396.383 168.359 403.545 171.777C410.706 175.195 416.566 178.613 421.123 182.031C425.68 185.449 429.261 189.111 431.865 193.018C434.632 196.761 436.585 200.749 437.725 204.98C438.864 209.212 439.515 213.851 439.678 218.896C439.515 226.383 437.725 233.626 434.307 240.625C432.842 243.555 430.889 246.647 428.447 249.902C426.169 252.995 423.32 256.006 419.902 258.936C416.484 261.865 412.415 264.632 407.695 267.236C403.138 269.84 397.767 272.119 391.582 274.072C397.604 275.863 402.568 277.979 406.475 280.42C410.544 282.861 413.799 285.14 416.24 287.256C419.17 289.86 421.367 292.383 422.832 294.824C424.622 298.242 425.843 301.172 426.494 303.613C427.145 306.055 427.552 308.415 427.715 310.693C428.04 312.809 428.447 315.007 428.936 317.285C429.424 319.564 430.482 322.168 432.109 325.098C433.411 327.376 434.958 329.736 436.748 332.178C438.376 334.294 440.247 336.572 442.363 339.014C444.642 341.455 447.409 343.815 450.664 346.094C446.107 346.257 441.875 346.338 437.969 346.338C434.225 346.338 430.97 346.338 428.203 346.338C424.948 346.338 421.855 346.257 418.926 346.094C415.996 345.931 412.334 345.85 407.939 345.85C404.196 345.85 399.395 345.85 393.535 345.85C387.839 345.85 380.921 345.931 372.783 346.094C376.364 343.327 379.294 340.56 381.572 337.793C383.851 335.026 385.641 332.503 386.943 330.225C388.408 327.62 389.466 325.098 390.117 322.656C390.931 318.262 391.012 313.704 390.361 308.984C389.873 304.915 388.571 300.439 386.455 295.557C384.339 290.511 380.921 285.465 376.201 280.42C371.481 281.234 367.493 281.885 364.238 282.373C361.146 282.699 358.46 283.024 356.182 283.35C353.577 283.675 351.462 283.919 349.834 284.082C348.369 284.245 346.742 284.408 344.951 284.57C343.486 284.733 341.859 284.977 340.068 285.303C338.441 285.465 336.895 285.71 335.43 286.035C335.104 293.034 335.104 299.137 335.43 304.346C335.755 309.391 336.162 313.623 336.65 317.041C337.301 321.11 338.034 324.609 338.848 327.539C339.661 330.469 340.801 333.317 342.266 336.084C343.405 338.363 344.87 340.804 346.66 343.408C348.451 345.85 350.485 347.884 352.764 349.512C348.532 349.512 344.463 349.512 340.557 349.512C336.813 349.512 333.395 349.43 330.303 349.268C326.722 349.268 323.304 349.186 320.049 349.023C316.794 348.861 313.132 348.779 309.062 348.779C305.645 348.779 301.576 348.779 296.855 348.779C292.298 348.779 287.334 348.861 281.963 349.023C286.195 344.629 289.531 340.885 291.973 337.793C294.414 334.701 296.286 332.096 297.588 329.98C299.053 327.702 299.948 325.749 300.273 324.121C300.599 321.517 300.843 316.878 301.006 310.205C301.331 303.369 301.576 295.557 301.738 286.768C301.901 277.979 301.982 268.783 301.982 259.18C301.982 249.577 301.901 240.625 301.738 232.324C301.576 223.861 301.413 216.618 301.25 210.596C301.087 204.574 300.924 200.749 300.762 199.121C300.273 196.191 299.215 193.262 297.588 190.332C296.286 187.728 294.414 184.798 291.973 181.543C289.531 178.288 286.195 175.033 281.963 171.777ZM374.248 257.715C375.876 256.738 377.259 255.762 378.398 254.785C379.538 253.809 380.514 252.262 381.328 250.146C382.142 247.868 382.793 244.694 383.281 240.625C383.932 236.556 384.665 231.022 385.479 224.023C386.13 217.025 385.641 211.247 384.014 206.689C382.549 202.132 380.514 198.551 377.91 195.947C375.469 193.18 372.702 191.309 369.609 190.332C366.68 189.193 364.076 188.623 361.797 188.623C357.24 188.623 352.764 190.007 348.369 192.773C343.975 195.54 340.638 199.284 338.359 204.004C337.546 206.12 336.813 209.619 336.162 214.502C335.674 218.734 335.348 224.593 335.186 232.08C335.023 239.567 335.267 249.414 335.918 261.621C342.103 262.598 347.555 263.005 352.275 262.842C356.995 262.516 360.983 261.947 364.238 261.133C368.145 260.319 371.481 259.18 374.248 257.715ZM537.334 165.918C546.123 166.243 554.993 167.871 563.945 170.801C573.06 173.568 581.442 178.125 589.092 184.473C596.742 190.658 603.252 198.714 608.623 208.643C613.994 218.408 617.331 230.371 618.633 244.531C619.772 256.087 618.307 267.562 614.238 278.955C610.332 290.186 604.88 300.521 597.881 309.961C590.882 319.401 582.826 327.458 573.711 334.131C564.596 340.641 555.482 344.954 546.367 347.07C540.833 348.372 534.73 348.535 528.057 347.559C521.546 346.419 514.873 344.385 508.037 341.455C501.364 338.363 494.772 334.456 488.262 329.736C481.914 325.016 476.136 319.645 470.928 313.623C465.719 307.438 461.325 300.765 457.744 293.604C454.326 286.442 452.21 278.955 451.396 271.143C450.583 264.632 450.501 257.471 451.152 249.658C451.966 241.683 453.512 233.789 455.791 225.977C458.232 218.001 461.569 210.352 465.801 203.027C470.195 195.54 475.729 189.03 482.402 183.496C489.076 177.799 496.888 173.405 505.84 170.312C514.954 167.057 525.452 165.592 537.334 165.918ZM493.633 264.795C491.354 282.21 492.982 296.208 498.516 306.787C504.212 317.367 512.757 323.796 524.15 326.074C529.684 327.214 534.974 326.074 540.02 322.656C545.228 319.076 549.948 313.949 554.18 307.275C558.411 300.602 562.074 292.79 565.166 283.838C568.258 274.886 570.537 265.527 572.002 255.762C573.467 245.996 573.548 237.207 572.246 229.395C571.107 221.419 569.072 214.665 566.143 209.131C563.213 203.434 559.632 199.04 555.4 195.947C551.331 192.855 547.1 191.146 542.705 190.82C535.055 190.332 528.382 192.367 522.686 196.924C516.989 201.318 512.188 207.096 508.281 214.258C504.375 221.419 501.201 229.476 498.76 238.428C496.481 247.38 494.772 256.169 493.633 264.795Z" fill="#D94F14"/>
</g>
<defs>
<filter id="filter0_d_28_7" x="86.1816" y="428.492" width="597.027" height="138.836" filterUnits="userSpaceOnUse" color-interpolation-filters="sRGB">
<feFlood flood-opacity="0" result="BackgroundImageFix"/>
<feColorMatrix in="SourceAlpha" type="matrix" values="0 0 0 0 0 0 0 0 0 0 0 0 0 0 0 0 0 0 127 0" result="hardAlpha"/>
<feOffset dx="5" dy="8"/>
<feGaussianBlur stdDeviation="2"/>
<feComposite in2="hardAlpha" operator="out"/>
<feColorMatrix type="matrix" values="0 0 0 0 0 0 0 0 0 0 0 0 0 0 0 0 0 0 0.5 0"/>
<feBlend mode="normal" in2="BackgroundImageFix" result="effect1_dropShadow_28_7"/>
<feBlend mode="normal" in="SourceGraphic" in2="effect1_dropShadow_28_7" result="shape"/>
</filter>
<filter id="filter1_d_28_7" x="136.211" y="165.43" width="493.131" height="196.814" filterUnits="userSpaceOnUse" color-interpolation-filters="sRGB">
<feFlood flood-opacity="0" result="BackgroundImageFix"/>
<feColorMatrix in="SourceAlpha" type="matrix" values="0 0 0 0 0 0 0 0 0 0 0 0 0 0 0 0 0 0 127 0" result="hardAlpha"/>
<feOffset dx="5" dy="8"/>
<feGaussianBlur stdDeviation="2"/>
<feComposite in2="hardAlpha" operator="out"/>
<feColorMatrix type="matrix" values="0 0 0 0 0 0 0 0 0 0 0 0 0 0 0 0 0 0 0.5 0"/>
<feBlend mode="normal" in2="BackgroundImageFix" result="effect1_dropShadow_28_7"/>
<feBlend mode="normal" in="SourceGraphic" in2="effect1_dropShadow_28_7" result="shape"/>
</filter>
</defs>
</svg>
