<svg width="750" height="750" viewBox="0 0 750 750" fill="none" xmlns="http://www.w3.org/2000/svg">
<circle cx="375" cy="375" r="365" fill="#D94F14" stroke="#D94F14" stroke-width="20"/>
<path d="M647.388 345.988L560.325 271.321V170.518C560.325 164.336 555.315 159.32 549.127 159.32H490.887C484.7 159.32 479.684 164.336 479.684 170.518V202.029L382.621 118.852C378.366 115.049 371.939 115.049 367.684 118.852L102.924 345.985C99.3303 349.053 98.0543 354.048 99.7262 358.464C101.403 362.881 105.669 365.777 110.393 365.699H189.986V575.365C189.986 581.553 194.997 586.563 201.184 586.563H300.491C306.678 586.563 311.689 581.553 311.689 575.365C311.689 569.178 306.678 564.167 300.491 564.167H212.387V354.501C212.387 348.313 207.371 343.303 201.184 343.303H140.481L375.161 142.303L609.841 343.303H549.138C542.951 343.303 537.935 348.313 537.935 354.501V564.167H460.133C453.95 564.167 448.935 569.178 448.935 575.365C448.935 581.553 453.95 586.563 460.133 586.563H549.138C555.325 586.563 560.336 581.553 560.336 575.365V365.699H640.153C644.877 365.777 649.143 362.881 650.82 358.464C652.492 354.048 651.216 349.053 647.622 345.985L647.388 345.988ZM502.081 181.721H537.92V252.133L502.081 221.368V181.721ZM447.8 372.201H451.232V375.633C451.232 381.821 456.248 386.836 462.435 386.836H494.618C500.8 386.836 505.816 381.821 505.816 375.633V309.925V309.93C505.612 303.889 500.659 299.097 494.618 299.102H462.358C456.175 299.102 451.16 304.118 451.16 310.3V313.732H448.696L435.483 301.936L435.477 301.941C433.425 300.107 430.764 299.097 428.014 299.102H369.03C299.514 299.102 243.514 341.138 243.514 376.009C243.514 382.196 248.524 387.207 254.712 387.207H334.753L340.43 390.566L347.899 427.003L339.388 621.883H339.383C339.243 624.946 340.357 627.93 342.472 630.144C344.592 632.357 347.519 633.613 350.581 633.607H410.316C413.378 633.613 416.311 632.357 418.425 630.144C420.545 627.93 421.66 624.946 421.519 621.883L412.482 426.63L419.951 389.969L447.8 372.201ZM473.56 321.504H483.638V364.81L473.56 364.805V321.504ZM269.64 364.81C281.213 345.622 318.994 321.504 369.02 321.504H423.749L436.963 333.301H436.968C439.025 335.129 441.681 336.139 444.437 336.134H451.155V350.249H444.437C442.291 350.254 440.192 350.874 438.39 352.04L406.806 372.347H353.494L343.561 366.3C341.822 365.269 339.832 364.727 337.811 364.732L269.64 364.81ZM362.004 611.21L370.139 426.037C370.249 425.146 370.249 424.24 370.139 423.35L364.316 394.079H396.723L390.9 423.35C390.515 424.209 390.238 425.11 390.077 426.037L398.14 610.61L362.004 611.21Z" fill="white" fill-opacity="0.1"/>
<g filter="url(#filter0_d_28_2)">
<path d="M151.07 442.352C155.237 443.393 159.208 444.174 162.984 444.695C166.76 445.216 170.081 445.607 172.945 445.867C176.331 446.258 179.456 446.388 182.32 446.258C185.966 446.258 190.523 445.932 195.992 445.281C201.591 444.63 207.32 444.044 213.18 443.523C219.039 442.872 224.638 442.482 229.977 442.352C235.445 442.091 239.872 442.417 243.258 443.328C246.643 444.109 250.094 445.346 253.609 447.039C257.255 448.602 260.576 450.62 263.57 453.094C266.565 455.438 269.039 458.237 270.992 461.492C272.945 464.617 274.052 468.198 274.312 472.234C274.182 477.312 273.01 482.065 270.797 486.492C268.974 490.268 265.914 494.174 261.617 498.211C257.32 502.117 251.135 505.112 243.062 507.195C247.099 507.716 250.549 508.628 253.414 509.93C256.409 511.102 258.948 512.534 261.031 514.227C263.245 515.789 265.003 517.547 266.305 519.5C267.737 521.453 268.844 523.406 269.625 525.359C271.578 529.917 272.49 534.995 272.359 540.594C271.578 547.885 270.081 553.68 267.867 557.977C265.784 562.273 263.375 565.594 260.641 567.938C257.906 570.281 255.107 571.909 252.242 572.82C249.378 573.732 246.773 574.448 244.43 574.969C242.086 575.49 239.221 575.75 235.836 575.75C232.451 575.75 228.805 575.685 224.898 575.555C221.122 575.294 217.216 575.099 213.18 574.969C209.143 574.708 205.302 574.708 201.656 574.969C198.661 575.229 195.016 575.49 190.719 575.75C187.073 576.01 182.516 576.336 177.047 576.727C171.578 576.987 165.198 577.312 157.906 577.703C159.339 576.661 160.51 575.49 161.422 574.188C162.464 572.755 163.31 571.518 163.961 570.477C164.612 569.174 165.198 567.938 165.719 566.766C166.109 565.724 166.435 562.859 166.695 558.172C166.956 553.484 167.151 547.885 167.281 541.375C167.411 534.734 167.477 527.638 167.477 520.086C167.607 512.404 167.542 505.047 167.281 498.016C167.151 490.854 166.891 484.539 166.5 479.07C166.24 473.471 165.849 469.435 165.328 466.961C164.547 464.227 163.505 461.427 162.203 458.562C161.161 456.089 159.664 453.419 157.711 450.555C155.888 447.69 153.674 444.956 151.07 442.352ZM192.281 462.273C192.281 462.794 192.346 464.552 192.477 467.547C192.607 470.151 192.737 474.188 192.867 479.656C193.128 484.995 193.453 492.612 193.844 502.508C197.099 503.94 200.289 504.721 203.414 504.852C206.539 504.852 209.339 504.721 211.812 504.461C214.677 504.07 217.411 503.419 220.016 502.508C223.531 501.076 226.266 498.732 228.219 495.477C230.302 492.221 231.669 488.836 232.32 485.32C233.102 481.674 233.297 478.289 232.906 475.164C232.516 471.909 231.669 469.565 230.367 468.133C227.893 465.919 224.833 464.096 221.188 462.664C218.062 461.492 214.091 460.711 209.273 460.32C204.586 459.799 198.922 460.451 192.281 462.273ZM191.305 554.852C196.122 557.326 200.354 558.953 204 559.734C207.646 560.516 210.706 560.906 213.18 560.906C216.044 560.906 218.518 560.516 220.602 559.734C223.076 558.562 225.484 557 227.828 555.047C230.302 552.964 232.125 550.555 233.297 547.82C234.599 544.956 235.12 541.831 234.859 538.445C234.599 534.93 233.102 531.089 230.367 526.922C227.893 523.927 224.898 521.583 221.383 519.891C218.258 518.458 214.286 517.547 209.469 517.156C204.781 516.766 198.987 517.872 192.086 520.477L191.305 554.852ZM282.32 447.43C286.747 447.951 290.458 448.341 293.453 448.602C296.578 448.732 299.117 448.927 301.07 449.188C303.414 449.448 305.237 449.578 306.539 449.578C307.971 449.708 310.12 449.643 312.984 449.383C315.458 449.122 318.779 448.797 322.945 448.406C327.242 448.016 332.711 447.43 339.352 446.648C336.357 449.253 333.948 451.792 332.125 454.266C330.432 456.609 329.13 458.693 328.219 460.516C327.047 462.729 326.331 464.812 326.07 466.766C325.549 469.891 325.094 474.188 324.703 479.656C324.443 484.995 324.182 490.854 323.922 497.234C323.661 503.615 323.531 510.19 323.531 516.961C323.531 523.732 323.596 530.177 323.727 536.297C323.987 542.286 324.378 547.625 324.898 552.312C325.549 557 326.331 560.385 327.242 562.469C328.544 564.812 329.911 567.156 331.344 569.5C332.646 571.453 334.208 573.471 336.031 575.555C337.854 577.638 339.938 579.331 342.281 580.633C334.599 580.242 328.479 580.047 323.922 580.047H316.891C314.807 580.047 312.138 580.177 308.883 580.438C306.148 580.698 302.698 580.958 298.531 581.219C294.365 581.479 289.352 581.87 283.492 582.391C286.487 579.135 288.831 576.01 290.523 573.016C292.216 570.021 293.583 567.417 294.625 565.203C295.797 562.599 296.578 560.125 296.969 557.781C297.49 554.396 297.88 550.229 298.141 545.281C298.531 540.203 298.792 534.799 298.922 529.07C299.052 523.211 299.052 517.286 298.922 511.297C298.922 505.177 298.792 499.318 298.531 493.719C298.271 488.12 297.88 483.042 297.359 478.484C296.969 473.927 296.448 470.281 295.797 467.547C295.406 465.854 294.625 463.966 293.453 461.883C292.411 460.06 290.979 457.977 289.156 455.633C287.464 453.159 285.185 450.424 282.32 447.43ZM342.281 443.523C348.141 444.565 352.958 445.281 356.734 445.672C360.51 446.062 363.57 446.388 365.914 446.648C368.648 446.909 370.797 446.974 372.359 446.844H378.219C380.302 446.844 382.906 446.844 386.031 446.844C389.286 446.714 393.323 446.648 398.141 446.648C400.875 453.029 403.349 458.888 405.562 464.227C407.906 469.565 409.859 474.122 411.422 477.898C413.245 482.456 414.938 486.557 416.5 490.203C418.323 494.76 420.276 499.773 422.359 505.242C424.443 510.711 426.331 515.854 428.023 520.672C429.846 525.49 431.344 529.461 432.516 532.586C433.688 535.711 434.273 537.143 434.273 536.883C434.273 536.753 434.339 535.451 434.469 532.977C434.599 530.372 434.729 527.182 434.859 523.406C434.99 519.5 435.12 515.268 435.25 510.711C435.51 506.023 435.641 501.531 435.641 497.234C435.771 492.807 435.836 488.771 435.836 485.125C435.836 481.479 435.706 478.745 435.445 476.922C435.055 474.708 434.273 472.169 433.102 469.305C432.06 466.831 430.628 463.901 428.805 460.516C426.982 457 424.443 453.029 421.188 448.602C426.526 448.732 430.888 448.797 434.273 448.797C437.659 448.797 440.393 448.797 442.477 448.797C444.82 448.797 446.643 448.732 447.945 448.602C449.638 448.602 451.721 448.471 454.195 448.211C456.409 447.951 459.143 447.755 462.398 447.625C465.784 447.365 469.951 447.039 474.898 446.648C472.034 449.253 469.755 451.727 468.062 454.07C466.37 456.414 465.003 458.497 463.961 460.32C462.789 462.404 462.008 464.357 461.617 466.18C461.096 468.523 460.641 472.365 460.25 477.703C459.99 482.911 459.664 488.771 459.273 495.281C459.013 501.792 458.753 508.562 458.492 515.594C458.232 522.625 457.971 529.07 457.711 534.93C457.711 539.357 457.581 544.109 457.32 549.188C457.06 553.484 456.799 558.367 456.539 563.836C456.279 569.174 455.953 574.578 455.562 580.047L438.18 580.438C433.102 571.453 428.805 563.771 425.289 557.391C421.904 550.88 419.104 545.542 416.891 541.375C414.417 536.557 412.333 532.521 410.641 529.266C409.208 526.141 407.32 522.56 404.977 518.523C403.023 515.138 400.549 510.971 397.555 506.023C394.69 501.076 391.24 495.411 387.203 489.031C386.812 498.016 386.617 505.698 386.617 512.078C386.747 518.328 386.943 523.536 387.203 527.703C387.594 532.521 388.049 536.557 388.57 539.812C389.221 542.938 390.133 546.453 391.305 550.359C392.346 553.745 393.583 557.716 395.016 562.273C396.578 566.831 398.466 571.974 400.68 577.703C392.997 577.312 387.268 577.117 383.492 577.117H377.633C375.81 577.117 373.336 577.312 370.211 577.703C367.607 577.964 364.026 578.354 359.469 578.875C355.042 579.396 349.508 580.112 342.867 581.023C345.992 577.247 348.466 573.797 350.289 570.672C352.242 567.417 353.74 564.682 354.781 562.469C356.083 559.865 356.995 557.586 357.516 555.633C357.906 553.549 358.167 549.969 358.297 544.891C358.427 539.682 358.427 533.823 358.297 527.312C358.297 520.672 358.167 513.706 357.906 506.414C357.776 499.122 357.581 492.352 357.32 486.102C357.06 479.852 356.734 474.513 356.344 470.086C356.083 465.659 355.888 462.924 355.758 461.883C355.367 460.19 354.586 458.367 353.414 456.414C352.372 454.721 351.005 452.833 349.312 450.75C347.62 448.536 345.276 446.128 342.281 443.523ZM467.867 442.742C472.424 443.393 476.396 443.914 479.781 444.305C483.167 444.695 485.966 445.021 488.18 445.281C490.784 445.542 492.997 445.737 494.82 445.867C496.904 446.128 499.443 445.997 502.438 445.477C505.562 444.956 508.883 444.435 512.398 443.914C515.914 443.263 519.56 442.742 523.336 442.352C527.112 441.961 530.758 441.961 534.273 442.352C536.617 442.612 539.612 443.133 543.258 443.914C546.904 444.695 550.745 445.932 554.781 447.625C558.948 449.318 563.115 451.531 567.281 454.266C571.448 457 575.224 460.451 578.609 464.617C581.995 468.784 584.794 473.732 587.008 479.461C589.221 485.19 590.458 491.896 590.719 499.578C591.109 511.036 590.068 521.453 587.594 530.828C585.12 540.203 581.279 548.211 576.07 554.852C570.992 561.492 564.547 566.701 556.734 570.477C548.922 574.253 539.807 576.336 529.391 576.727C521.448 577.378 513.635 577.964 505.953 578.484C502.698 578.745 499.247 578.94 495.602 579.07C492.086 579.201 488.57 579.331 485.055 579.461C481.539 579.461 478.154 579.396 474.898 579.266C471.643 579.135 468.648 578.94 465.914 578.68C468.909 577.247 471.318 575.815 473.141 574.383C475.094 572.951 476.591 571.714 477.633 570.672C478.805 569.37 479.651 568.198 480.172 567.156C480.432 565.724 480.823 562.924 481.344 558.758C481.734 555.242 482.255 550.229 482.906 543.719C483.557 537.208 484.339 528.354 485.25 517.156L486.422 503.289C487.073 494.695 487.333 487.664 487.203 482.195C487.203 476.727 487.073 472.43 486.812 469.305C486.422 465.659 485.901 462.99 485.25 461.297C484.729 459.865 483.753 458.172 482.32 456.219C481.018 454.656 479.195 452.768 476.852 450.555C474.638 448.211 471.643 445.607 467.867 442.742ZM509.078 514.617C509.339 526.206 509.924 535.125 510.836 541.375C511.878 547.495 512.984 552.052 514.156 555.047C515.589 558.432 517.151 560.451 518.844 561.102C521.318 561.102 524.117 560.06 527.242 557.977C530.367 555.763 533.427 552.443 536.422 548.016C539.547 543.589 542.346 538.055 544.82 531.414C547.424 524.773 549.312 517.026 550.484 508.172C551.656 499.318 551.331 491.505 549.508 484.734C547.685 477.964 545.276 472.299 542.281 467.742C539.286 463.055 536.227 459.539 533.102 457.195C529.977 454.721 527.633 453.484 526.07 453.484C524.247 453.484 522.62 454.005 521.188 455.047C519.755 455.958 517.737 458.107 515.133 461.492C513.831 463.315 512.659 465.919 511.617 469.305C510.706 472.299 509.924 476.271 509.273 481.219C508.622 486.167 508.427 492.547 508.688 500.359L509.078 514.617Z" fill="white"/>
</g>
<g filter="url(#filter1_d_28_2)">
<path d="M102.926 197.676C109.371 198.822 114.671 199.609 118.824 200.039C122.978 200.469 126.344 200.827 128.922 201.113C131.93 201.4 134.293 201.471 136.012 201.328H142.457C144.749 201.328 147.613 201.328 151.051 201.328C154.632 201.185 159.072 201.113 164.371 201.113C167.379 208.132 170.1 214.577 172.535 220.449C175.113 226.322 177.262 231.335 178.98 235.488C180.986 240.501 182.848 245.013 184.566 249.023C186.572 254.036 188.72 259.551 191.012 265.566C193.303 271.582 195.38 277.24 197.242 282.539C199.247 287.839 200.895 292.207 202.184 295.645C203.473 299.082 204.117 300.658 204.117 300.371C204.117 300.228 204.189 298.796 204.332 296.074C204.475 293.21 204.618 289.701 204.762 285.547C204.905 281.25 205.048 276.595 205.191 271.582C205.478 266.426 205.621 261.484 205.621 256.758C205.764 251.888 205.836 247.448 205.836 243.438C205.836 239.427 205.693 236.419 205.406 234.414C204.977 231.979 204.117 229.186 202.828 226.035C201.682 223.314 200.107 220.091 198.102 216.367C196.096 212.5 193.303 208.132 189.723 203.262C195.595 203.405 200.393 203.477 204.117 203.477C207.841 203.477 210.849 203.477 213.141 203.477C215.719 203.477 217.724 203.405 219.156 203.262C221.018 203.262 223.31 203.118 226.031 202.832C228.466 202.546 231.474 202.331 235.055 202.188C238.779 201.901 243.362 201.543 248.805 201.113C245.654 203.978 243.147 206.699 241.285 209.277C239.423 211.855 237.919 214.147 236.773 216.152C235.484 218.444 234.625 220.592 234.195 222.598C233.622 225.176 233.121 229.401 232.691 235.273C232.405 241.003 232.047 247.448 231.617 254.609C231.331 261.771 231.044 269.219 230.758 276.953C230.471 284.688 230.185 291.777 229.898 298.223C229.898 303.092 229.755 308.32 229.469 313.906C229.182 318.633 228.896 324.004 228.609 330.02C228.323 335.892 227.965 341.836 227.535 347.852L208.414 348.281C202.828 338.398 198.102 329.948 194.234 322.93C190.51 315.768 187.431 309.896 184.996 305.312C182.275 300.013 179.983 295.573 178.121 291.992C176.546 288.555 174.469 284.616 171.891 280.176C169.742 276.452 167.021 271.868 163.727 266.426C160.576 260.983 156.78 254.753 152.34 247.734C151.91 257.617 151.695 266.068 151.695 273.086C151.839 279.961 152.053 285.69 152.34 290.273C152.77 295.573 153.271 300.013 153.844 303.594C154.56 307.031 155.562 310.898 156.852 315.195C157.997 318.919 159.358 323.288 160.934 328.301C162.652 333.314 164.729 338.971 167.164 345.273C158.714 344.844 152.411 344.629 148.258 344.629H141.812C139.807 344.629 137.086 344.844 133.648 345.273C130.784 345.56 126.845 345.99 121.832 346.562C116.962 347.135 110.875 347.923 103.57 348.926C107.008 344.772 109.729 340.977 111.734 337.539C113.883 333.958 115.53 330.951 116.676 328.516C118.108 325.651 119.111 323.145 119.684 320.996C120.113 318.704 120.4 314.766 120.543 309.18C120.686 303.451 120.686 297.005 120.543 289.844C120.543 282.539 120.4 274.876 120.113 266.855C119.97 258.835 119.755 251.387 119.469 244.512C119.182 237.637 118.824 231.764 118.395 226.895C118.108 222.025 117.893 219.017 117.75 217.871C117.32 216.009 116.461 214.004 115.172 211.855C114.026 209.993 112.522 207.917 110.66 205.625C108.798 203.19 106.22 200.54 102.926 197.676ZM236.773 203.262C246.799 203.548 255.107 203.763 261.695 203.906C268.427 203.906 273.87 203.906 278.023 203.906H289.41H353.434C353.72 206.771 353.935 209.564 354.078 212.285C354.365 214.863 354.508 217.155 354.508 219.16C354.508 221.595 354.436 223.815 354.293 225.82C354.15 227.826 353.935 229.974 353.648 232.266C353.362 234.271 353.076 236.419 352.789 238.711C352.503 241.003 352.001 243.366 351.285 245.801C349.28 238.066 346.559 232.194 343.121 228.184C339.827 224.173 336.461 221.237 333.023 219.375C329.013 217.227 324.788 216.081 320.348 215.938C314.475 216.224 309.892 216.725 306.598 217.441C303.303 218.158 300.725 219.16 298.863 220.449C297.001 221.738 295.569 223.242 294.566 224.961C293.707 226.536 292.776 228.327 291.773 230.332C290.914 232.051 290.126 234.701 289.41 238.281C288.694 241.289 287.978 245.371 287.262 250.527C286.689 255.684 286.044 262.344 285.328 270.508C289.195 269.362 292.275 268.288 294.566 267.285C297.001 266.283 298.935 265.423 300.367 264.707C301.943 263.848 303.089 263.06 303.805 262.344C304.378 261.484 305.237 259.909 306.383 257.617C307.242 255.612 308.388 252.891 309.82 249.453C311.396 246.016 313.258 241.289 315.406 235.273C315.693 241.862 315.836 247.376 315.836 251.816C315.836 256.113 315.908 259.622 316.051 262.344C316.051 265.495 316.122 268.001 316.266 269.863V278.027C316.266 281.035 316.266 285.117 316.266 290.273C316.409 295.286 316.624 301.66 316.91 309.395C315.191 304.095 313.616 299.941 312.184 296.934C310.895 293.783 309.749 291.419 308.746 289.844C307.6 287.982 306.598 286.693 305.738 285.977C304.736 285.69 303.375 285.404 301.656 285.117C300.081 284.974 298.076 284.902 295.641 284.902C293.349 284.902 290.413 285.26 286.832 285.977C286.402 293.854 286.331 300.228 286.617 305.098C287.047 309.824 287.62 313.477 288.336 316.055C289.052 319.062 289.911 321.211 290.914 322.5C292.203 323.789 294.781 324.863 298.648 325.723C302.516 326.439 306.884 326.725 311.754 326.582C316.767 326.296 321.852 325.436 327.008 324.004C332.164 322.572 336.747 320.208 340.758 316.914C343.766 314.193 346.988 310.755 350.426 306.602C353.29 303.021 356.441 298.509 359.879 293.066C363.46 287.624 366.969 281.035 370.406 273.301C369.833 279.746 369.404 285.117 369.117 289.414C368.974 293.568 368.759 296.934 368.473 299.512C368.186 302.52 367.971 304.811 367.828 306.387C367.828 308.105 367.613 310.54 367.184 313.691C366.897 316.413 366.396 320.137 365.68 324.863C365.107 329.447 364.319 335.319 363.316 342.48C356.585 342.624 350.211 342.767 344.195 342.91C338.18 342.91 332.88 342.982 328.297 343.125C322.854 343.268 317.841 343.411 313.258 343.555C308.531 343.555 303.303 343.77 297.574 344.199C292.561 344.486 286.617 344.915 279.742 345.488C273.01 346.061 265.562 346.849 257.398 347.852C258.115 338.112 258.616 328.945 258.902 320.352C259.332 311.615 259.618 303.952 259.762 297.363C259.905 289.629 259.905 282.467 259.762 275.879C260.478 259.408 260.191 246.087 258.902 235.918C257.613 225.749 256.109 219.232 254.391 216.367C253.531 215.365 252.314 214.147 250.738 212.715C249.449 211.569 247.659 210.208 245.367 208.633C243.076 207.057 240.211 205.267 236.773 203.262ZM358.375 204.121C364.677 204.408 370.048 204.622 374.488 204.766C378.928 204.909 382.581 205.052 385.445 205.195C388.883 205.339 391.676 205.482 393.824 205.625C396.116 205.768 398.98 205.84 402.418 205.84C408.29 205.84 416.598 205.41 427.34 204.551C425.048 205.697 423.258 206.986 421.969 208.418C420.68 209.707 419.677 210.996 418.961 212.285C418.102 213.861 417.457 215.365 417.027 216.797C416.741 218.516 417.385 221.165 418.961 224.746C420.107 227.754 422.184 231.836 425.191 236.992C428.199 242.148 432.639 248.809 438.512 256.973C445.53 246.66 450.973 238.568 454.84 232.695C458.707 226.823 461.572 222.383 463.434 219.375C465.582 215.794 466.871 213.431 467.301 212.285C467.158 211.569 466.585 210.566 465.582 209.277C464.723 208.132 463.29 206.771 461.285 205.195C459.423 203.477 456.63 201.4 452.906 198.965C458.779 199.824 463.648 200.469 467.516 200.898C471.526 201.328 474.749 201.615 477.184 201.758C480.048 201.901 482.411 201.901 484.273 201.758C486.135 201.615 488.857 201.471 492.438 201.328C495.445 201.185 499.456 201.042 504.469 200.898C509.625 200.755 516.214 200.54 524.234 200.254C521.083 201.829 518.362 203.333 516.07 204.766C513.779 206.198 511.845 207.487 510.27 208.633C508.408 210.065 506.76 211.283 505.328 212.285C503.609 214.004 500.458 217.513 495.875 222.812C492.008 227.396 486.493 234.128 479.332 243.008C472.171 251.745 462.574 263.633 450.543 278.672C460.283 288.984 468.16 297.148 474.176 303.164C480.191 309.18 484.918 313.763 488.355 316.914C492.366 320.638 495.302 323.145 497.164 324.434C498.883 325.436 501.246 326.725 504.254 328.301C506.832 329.733 510.198 331.523 514.352 333.672C518.505 335.677 523.805 338.112 530.25 340.977H494.371C491.363 340.977 487.711 341.12 483.414 341.406C479.69 341.693 475.107 341.979 469.664 342.266C464.221 342.552 457.848 343.053 450.543 343.77C453.121 342.194 454.983 340.69 456.129 339.258C457.418 337.682 458.277 336.322 458.707 335.176C459.28 333.887 459.352 332.741 458.922 331.738C458.206 330.306 456.988 328.158 455.27 325.293C453.694 322.858 451.474 319.421 448.609 314.98C445.745 310.54 441.806 304.668 436.793 297.363C431.064 303.522 426.624 308.678 423.473 312.832C420.465 316.842 418.173 320.065 416.598 322.5C414.879 325.365 413.733 327.656 413.16 329.375C413.16 330.951 413.518 332.526 414.234 334.102C414.951 335.534 416.096 337.109 417.672 338.828C419.391 340.547 421.897 342.194 425.191 343.77L361.598 346.562C366.754 342.982 371.051 339.759 374.488 336.895C377.926 333.887 380.719 331.38 382.867 329.375C385.302 326.94 387.236 324.792 388.668 322.93C390.1 320.781 392.32 317.63 395.328 313.477C397.763 309.896 401.129 305.098 405.426 299.082C409.866 293.066 415.523 285.332 422.398 275.879C414.807 263.704 408.648 254.036 403.922 246.875C399.339 239.714 395.615 234.199 392.75 230.332C389.456 225.892 387.021 222.812 385.445 221.094C384.013 219.805 382.008 218.372 379.43 216.797C377.281 215.365 374.488 213.646 371.051 211.641C367.613 209.492 363.388 206.986 358.375 204.121ZM537.555 204.551C544.716 204.98 550.732 205.339 555.602 205.625C560.615 205.768 564.768 205.911 568.062 206.055C571.786 206.198 574.938 206.198 577.516 206.055C580.094 205.911 583.603 205.553 588.043 204.98C591.767 204.551 596.708 203.906 602.867 203.047C609.169 202.044 616.975 200.755 626.285 199.18C622.991 202.474 620.413 205.482 618.551 208.203C616.832 210.781 615.471 213.001 614.469 214.863C613.323 217.155 612.535 219.089 612.105 220.664C611.819 222.096 612.105 225.677 612.965 231.406C613.824 237.135 615.042 243.939 616.617 251.816C618.193 259.551 619.911 267.858 621.773 276.738C623.635 285.475 625.497 293.711 627.359 301.445C629.221 309.036 630.868 315.553 632.301 320.996C633.876 326.296 635.022 329.447 635.738 330.449C637.887 333.457 639.247 335.462 639.82 336.465C640.393 337.324 641.396 338.112 642.828 338.828C643.401 339.115 644.332 339.544 645.621 340.117C646.767 340.69 648.271 341.406 650.133 342.266C652.138 343.125 654.645 344.128 657.652 345.273C652.066 345.56 647.268 345.775 643.258 345.918C639.247 345.918 635.953 345.99 633.375 346.133C630.367 346.276 627.789 346.419 625.641 346.562C623.492 346.562 620.914 346.706 617.906 346.992C615.328 347.279 611.962 347.565 607.809 347.852C603.798 348.138 599.072 348.424 593.629 348.711C596.493 346.706 598.785 344.915 600.504 343.34C602.366 341.621 603.798 340.189 604.801 339.043C605.947 337.611 606.734 336.322 607.164 335.176C607.451 333.887 607.665 331.953 607.809 329.375C607.952 327.083 607.952 324.076 607.809 320.352C607.665 316.484 607.307 311.471 606.734 305.312L550.23 311.113C548.798 313.548 547.724 315.697 547.008 317.559C546.292 319.277 545.79 320.781 545.504 322.07C545.074 323.646 544.931 324.935 545.074 325.938C545.361 327.083 545.862 328.444 546.578 330.02C547.294 331.452 548.297 333.171 549.586 335.176C551.018 337.038 553.095 339.258 555.816 341.836C552.236 341.693 548.583 341.621 544.859 341.621C541.135 341.621 537.698 341.693 534.547 341.836C530.823 341.979 527.171 342.122 523.59 342.266C520.009 342.409 515.927 342.624 511.344 342.91C507.477 343.197 502.965 343.555 497.809 343.984C492.509 344.271 486.852 344.701 480.836 345.273C484.56 343.555 487.711 341.836 490.289 340.117C492.867 338.255 495.016 336.536 496.734 334.961C498.74 333.242 500.458 331.595 501.891 330.02C502.893 328.587 504.898 325.293 507.906 320.137C510.914 314.837 514.28 308.607 518.004 301.445C521.871 294.284 525.882 286.621 530.035 278.457C534.332 270.293 538.199 262.63 541.637 255.469C545.074 248.164 547.867 241.862 550.016 236.562C552.164 231.263 553.238 227.826 553.238 226.25C552.952 224.388 552.236 222.311 551.09 220.02C550.087 218.014 548.512 215.723 546.363 213.145C544.358 210.566 541.422 207.702 537.555 204.551ZM604.156 289.414C603.297 284.401 602.509 280.104 601.793 276.523C601.077 272.799 600.504 269.72 600.074 267.285C599.501 264.421 599.072 261.914 598.785 259.766C598.355 257.76 597.854 255.182 597.281 252.031C596.708 249.31 595.992 245.944 595.133 241.934C594.417 237.78 593.486 232.839 592.34 227.109C584.176 243.438 577.802 256.113 573.219 265.137C568.779 274.017 565.556 280.534 563.551 284.688C561.116 289.557 559.755 292.422 559.469 293.281L604.156 289.414Z" fill="white"/>
</g>
<defs>
<filter id="filter0_d_28_2" x="151.07" y="441.766" width="449.234" height="152.625" filterUnits="userSpaceOnUse" color-interpolation-filters="sRGB">
<feFlood flood-opacity="0" result="BackgroundImageFix"/>
<feColorMatrix in="SourceAlpha" type="matrix" values="0 0 0 0 0 0 0 0 0 0 0 0 0 0 0 0 0 0 127 0" result="hardAlpha"/>
<feOffset dx="5" dy="8"/>
<feGaussianBlur stdDeviation="2"/>
<feComposite in2="hardAlpha" operator="out"/>
<feColorMatrix type="matrix" values="0 0 0 0 0 0 0 0 0 0 0 0 0 0 0 0 0 0 0.5 0"/>
<feBlend mode="normal" in2="BackgroundImageFix" result="effect1_dropShadow_28_2"/>
<feBlend mode="normal" in="SourceGraphic" in2="effect1_dropShadow_28_2" result="shape"/>
</filter>
<filter id="filter1_d_28_2" x="102.926" y="197.676" width="563.727" height="163.25" filterUnits="userSpaceOnUse" color-interpolation-filters="sRGB">
<feFlood flood-opacity="0" result="BackgroundImageFix"/>
<feColorMatrix in="SourceAlpha" type="matrix" values="0 0 0 0 0 0 0 0 0 0 0 0 0 0 0 0 0 0 127 0" result="hardAlpha"/>
<feOffset dx="5" dy="8"/>
<feGaussianBlur stdDeviation="2"/>
<feComposite in2="hardAlpha" operator="out"/>
<feColorMatrix type="matrix" values="0 0 0 0 0 0 0 0 0 0 0 0 0 0 0 0 0 0 0.5 0"/>
<feBlend mode="normal" in2="BackgroundImageFix" result="effect1_dropShadow_28_2"/>
<feBlend mode="normal" in="SourceGraphic" in2="effect1_dropShadow_28_2" result="shape"/>
</filter>
</defs>
</svg>
