<svg width="810" height="810" viewBox="0 0 810 810" fill="none" xmlns="http://www.w3.org/2000/svg">
<circle cx="405" cy="405" r="385" fill="#F5F5F5" stroke="#FFFDFD" stroke-width="40"/>
<circle cx="405" cy="405" r="365" fill="#F5F5F5" stroke="#D94F14" stroke-width="20"/>
<path d="M677.388 375.988L590.325 301.321V200.518C590.325 194.336 585.315 189.32 579.127 189.32H520.887C514.7 189.32 509.684 194.336 509.684 200.518V232.029L412.621 148.852C408.366 145.049 401.939 145.049 397.684 148.852L132.924 375.985C129.33 379.053 128.054 384.047 129.726 388.464C131.403 392.881 135.669 395.777 140.393 395.699H219.986V605.365C219.986 611.553 224.997 616.563 231.184 616.563H330.491C336.678 616.563 341.689 611.553 341.689 605.365C341.689 599.178 336.678 594.167 330.491 594.167H242.387V384.501C242.387 378.313 237.371 373.303 231.184 373.303H170.481L405.161 172.303L639.841 373.303H579.138C572.951 373.303 567.935 378.313 567.935 384.501V594.167H490.133C483.95 594.167 478.935 599.178 478.935 605.365C478.935 611.553 483.95 616.563 490.133 616.563H579.138C585.325 616.563 590.336 611.553 590.336 605.365V395.699H670.153C674.877 395.777 679.143 392.881 680.82 388.464C682.492 384.047 681.216 379.053 677.622 375.985L677.388 375.988ZM532.081 211.721H567.92V282.133L532.081 251.368V211.721ZM477.8 402.201H481.232V405.633C481.232 411.821 486.248 416.836 492.435 416.836H524.618C530.8 416.836 535.816 411.821 535.816 405.633V339.925V339.93C535.612 333.889 530.659 329.097 524.618 329.102H492.358C486.175 329.102 481.16 334.118 481.16 340.3V343.732H478.696L465.483 331.936L465.477 331.941C463.425 330.107 460.764 329.097 458.014 329.102H399.03C329.514 329.102 273.514 371.138 273.514 406.009C273.514 412.196 278.524 417.207 284.712 417.207H364.753L370.43 420.566L377.899 457.003L369.388 651.883H369.383C369.243 654.946 370.357 657.93 372.472 660.144C374.592 662.357 377.519 663.613 380.581 663.607H440.316C443.378 663.613 446.311 662.357 448.425 660.144C450.545 657.93 451.66 654.946 451.519 651.883L442.482 456.63L449.951 419.969L477.8 402.201ZM503.56 351.504H513.638V394.81L503.56 394.805V351.504ZM299.64 394.81C311.213 375.622 348.994 351.504 399.02 351.504H453.749L466.963 363.301H466.968C469.025 365.129 471.681 366.139 474.437 366.134H481.155V380.249H474.437C472.291 380.254 470.192 380.874 468.39 382.04L436.806 402.347H383.494L373.561 396.3C371.822 395.269 369.832 394.727 367.811 394.732L299.64 394.81ZM392.004 641.21L400.139 456.037C400.249 455.146 400.249 454.24 400.139 453.35L394.316 424.079H426.723L420.9 453.35C420.515 454.209 420.239 455.11 420.077 456.037L428.14 640.61L392.004 641.21Z" fill="#D94F14" fill-opacity="0.1"/>
<path d="M170.303 461.314C174.176 461.314 177.663 461.979 180.762 463.307C183.971 464.524 186.904 465.908 189.561 467.457C192.327 469.007 194.928 470.445 197.363 471.773C199.798 472.991 202.288 473.6 204.834 473.6C206.826 473.489 209.095 473.212 211.641 472.77C213.854 472.327 216.4 471.663 219.277 470.777C222.266 469.781 225.586 468.342 229.238 466.461C225.586 470.003 222.598 472.991 220.273 475.426C218.06 477.75 216.344 479.687 215.127 481.236C213.688 483.007 212.637 484.391 211.973 485.387C211.309 486.604 210.312 488.43 208.984 490.865C207.767 493.079 206.107 496.067 204.004 499.83C201.901 503.482 199.245 508.297 196.035 514.273C196.035 506.637 195.26 500.715 193.711 496.51C192.272 492.304 190.667 489.094 188.896 486.881C186.794 484.335 184.414 482.73 181.758 482.066C179.323 481.734 176.888 482.177 174.453 483.395C172.018 484.501 169.583 486.161 167.148 488.375C164.824 490.589 162.555 493.245 160.342 496.344C158.239 499.332 156.302 502.486 154.531 505.807C152.871 509.127 151.488 512.503 150.381 515.934C149.274 519.254 148.555 522.353 148.223 525.23C147.891 527.776 147.835 530.764 148.057 534.195C148.278 537.516 148.776 540.947 149.551 544.488C150.326 547.919 151.322 551.295 152.539 554.615C153.757 557.936 155.251 560.924 157.021 563.58C158.903 566.126 161.006 568.229 163.33 569.889C165.654 571.438 168.311 572.158 171.299 572.047C174.619 571.826 177.884 570.829 181.094 569.059C183.861 567.62 186.683 565.406 189.561 562.418C192.438 559.319 194.928 554.947 197.031 549.303L221.602 553.785C214.518 562.418 207.601 568.893 200.85 573.209C194.209 577.525 188.232 580.569 182.92 582.34C176.722 584.332 170.856 585.273 165.322 585.162C158.35 584.387 151.82 582.285 145.732 578.854C139.645 575.423 134.388 571.272 129.961 566.402C125.645 561.422 122.269 555.999 119.834 550.133C117.399 544.267 116.348 538.512 116.68 532.867C116.901 529.104 117.676 524.732 119.004 519.752C120.332 514.661 122.103 509.459 124.316 504.146C126.641 498.834 129.408 493.632 132.617 488.541C135.827 483.45 139.368 478.912 143.242 474.928C147.116 470.833 151.322 467.568 155.859 465.133C160.508 462.587 165.322 461.314 170.303 461.314ZM215.625 466.129C219.499 466.572 222.764 466.904 225.42 467.125C228.076 467.236 230.179 467.346 231.729 467.457C233.61 467.568 235.104 467.623 236.211 467.623C238.092 467.623 240.251 467.568 242.686 467.457C244.788 467.346 247.223 467.18 249.99 466.959C252.868 466.627 255.967 466.129 259.287 465.465C257.738 467.125 256.465 468.73 255.469 470.279C254.473 471.718 253.698 473.046 253.145 474.264C252.48 475.592 251.927 476.809 251.484 477.916C251.042 479.355 250.544 481.568 249.99 484.557C249.437 487.102 248.828 490.699 248.164 495.348C247.611 499.996 246.891 506.083 246.006 513.609C249.769 513.72 253.034 513.775 255.801 513.775C258.568 513.665 260.892 513.609 262.773 513.609H268.252C269.801 513.499 271.572 513.388 273.564 513.277C276.885 513.167 281.921 512.835 288.672 512.281C289.225 507.19 289.502 502.818 289.502 499.166C289.613 495.403 289.557 492.249 289.336 489.703C289.115 486.826 288.783 484.391 288.34 482.398C288.008 481.292 287.51 479.964 286.846 478.414C286.292 477.086 285.518 475.481 284.521 473.6C283.636 471.607 282.419 469.228 280.869 466.461C283.747 466.904 286.292 467.236 288.506 467.457C290.83 467.568 292.767 467.678 294.316 467.789C296.087 467.9 297.581 467.955 298.799 467.955C300.016 467.955 301.621 467.9 303.613 467.789C305.273 467.678 307.321 467.623 309.756 467.623C312.191 467.512 315.179 467.346 318.721 467.125C317.835 468.674 317.061 470.279 316.396 471.939C315.732 473.6 315.179 475.094 314.736 476.422C314.294 477.971 313.851 479.521 313.408 481.07C312.855 483.395 312.357 486.77 311.914 491.197C311.582 495.624 311.25 500.549 310.918 505.973C310.697 511.396 310.475 517.04 310.254 522.906C310.143 528.772 310.033 534.306 309.922 539.508C309.922 544.71 309.977 549.358 310.088 553.453C310.199 557.438 310.42 560.26 310.752 561.92C311.084 563.912 311.637 565.96 312.412 568.062C313.076 569.944 313.962 571.992 315.068 574.205C316.175 576.308 317.614 578.3 319.385 580.182L279.375 583.17C281.035 581.62 282.363 580.126 283.359 578.688C284.355 577.138 285.13 575.81 285.684 574.703C286.237 573.486 286.624 572.324 286.846 571.217C286.956 569.889 287.122 567.564 287.344 564.244C287.565 561.477 287.786 557.548 288.008 552.457C288.229 547.366 288.451 540.615 288.672 532.203C287.122 532.203 285.241 532.258 283.027 532.369C280.924 532.369 278.932 532.424 277.051 532.535C274.837 532.646 272.513 532.701 270.078 532.701C267.643 532.812 265.098 532.923 262.441 533.033C260.228 533.255 257.738 533.476 254.971 533.697C252.314 533.808 249.658 533.974 247.002 534.195C246.781 538.844 246.781 542.939 247.002 546.48C247.223 549.911 247.555 552.844 247.998 555.279C248.441 558.157 248.994 560.647 249.658 562.75C250.322 564.742 251.042 566.734 251.816 568.727C252.48 570.497 253.255 572.379 254.141 574.371C255.137 576.363 256.133 578.134 257.129 579.684C255.026 579.462 253.089 579.296 251.318 579.186C249.548 578.964 247.998 578.743 246.67 578.521C245.12 578.411 243.626 578.3 242.188 578.189C240.749 578.189 239.033 578.134 237.041 578.023C235.27 577.913 233.057 577.857 230.4 577.857C227.744 577.747 224.645 577.691 221.104 577.691C223.206 575.589 224.867 573.541 226.084 571.549C227.412 569.446 228.353 567.564 228.906 565.904C229.57 563.912 230.013 562.086 230.234 560.426C230.345 558.987 230.4 556.275 230.4 552.291C230.511 548.307 230.511 543.769 230.4 538.678C230.4 533.476 230.345 528.053 230.234 522.408C230.124 516.653 229.958 511.285 229.736 506.305C229.626 501.324 229.46 497.063 229.238 493.521C229.128 489.869 229.017 487.6 228.906 486.715C228.353 484.723 227.523 482.564 226.416 480.24C225.42 478.359 224.092 476.201 222.432 473.766C220.771 471.22 218.503 468.674 215.625 466.129ZM383.301 458.824C389.277 459.046 395.309 460.152 401.396 462.145C407.594 464.026 413.294 467.125 418.496 471.441C423.698 475.647 428.125 481.126 431.777 487.877C435.43 494.518 437.699 502.652 438.584 512.281C439.359 520.139 438.363 527.942 435.596 535.689C432.939 543.326 429.232 550.354 424.473 556.773C419.714 563.193 414.235 568.671 408.037 573.209C401.839 577.636 395.641 580.569 389.443 582.008C385.68 582.893 381.53 583.004 376.992 582.34C372.565 581.565 368.027 580.182 363.379 578.189C358.841 576.087 354.359 573.43 349.932 570.221C345.615 567.011 341.686 563.359 338.145 559.264C334.603 555.058 331.615 550.52 329.18 545.65C326.855 540.781 325.417 535.689 324.863 530.377C324.31 525.95 324.255 521.08 324.697 515.768C325.251 510.344 326.302 504.977 327.852 499.664C329.512 494.241 331.781 489.039 334.658 484.059C337.646 478.967 341.41 474.54 345.947 470.777C350.485 466.904 355.798 463.915 361.885 461.812C368.083 459.599 375.221 458.603 383.301 458.824ZM353.584 526.061C352.035 537.903 353.141 547.421 356.904 554.615C360.778 561.809 366.589 566.181 374.336 567.73C378.099 568.505 381.696 567.73 385.127 565.406C388.669 562.971 391.878 559.485 394.756 554.947C397.633 550.41 400.124 545.097 402.227 539.01C404.329 532.923 405.879 526.559 406.875 519.918C407.871 513.277 407.926 507.301 407.041 501.988C406.266 496.565 404.883 491.972 402.891 488.209C400.898 484.335 398.464 481.347 395.586 479.244C392.819 477.141 389.941 475.979 386.953 475.758C381.751 475.426 377.214 476.809 373.34 479.908C369.466 482.896 366.201 486.826 363.545 491.695C360.889 496.565 358.73 502.044 357.07 508.131C355.521 514.218 354.359 520.195 353.584 526.061ZM430.283 467.291C433.936 467.734 437.256 468.066 440.244 468.287C443.122 468.508 445.612 468.73 447.715 468.951C450.15 469.173 452.308 469.339 454.189 469.449C456.182 469.449 458.727 469.394 461.826 469.283C464.482 469.173 467.858 469.007 471.953 468.785C476.048 468.564 481.084 468.176 487.061 467.623C484.183 469.283 481.803 470.943 479.922 472.604C478.151 474.264 476.768 475.758 475.771 477.086C474.554 478.635 473.669 480.185 473.115 481.734C472.783 483.837 472.894 487.932 473.447 494.02C473.669 496.565 474.001 499.719 474.443 503.482C474.997 507.135 475.661 511.507 476.436 516.598C477.321 521.578 478.372 527.333 479.59 533.863C480.918 540.393 482.412 547.809 484.072 556.109C486.286 549.801 488.112 544.212 489.551 539.342C490.99 534.361 492.207 530.1 493.203 526.559C494.31 522.574 495.251 519.033 496.025 515.934C496.8 512.724 497.741 508.574 498.848 503.482C499.733 499.166 500.895 493.577 502.334 486.715C503.773 479.853 505.544 471.386 507.646 461.314L513.623 462.145C514.176 470.003 514.73 476.92 515.283 482.896C515.947 488.873 516.501 493.964 516.943 498.17C517.386 503.04 517.829 507.245 518.271 510.787C518.714 513.997 519.378 517.704 520.264 521.91C521.038 525.452 522.035 529.824 523.252 535.025C524.469 540.117 526.074 545.872 528.066 552.291C530.059 544.433 531.829 537.405 533.379 531.207C535.039 525.009 536.423 519.531 537.529 514.771C538.747 510.012 539.743 505.917 540.518 502.486C541.403 499.055 542.122 496.178 542.676 493.854C543.893 488.32 544.613 484.612 544.834 482.73C544.723 480.628 544.225 478.58 543.34 476.588C542.565 474.817 541.348 472.88 539.688 470.777C538.027 468.674 535.592 466.627 532.383 464.635C539.134 464.856 544.613 465.022 548.818 465.133C553.135 465.133 556.566 465.133 559.111 465.133H565.752H571.729C573.942 465.133 576.82 465.133 580.361 465.133C584.014 465.022 588.662 464.856 594.307 464.635C589.437 467.18 585.508 469.505 582.52 471.607C579.531 473.71 577.207 475.481 575.547 476.92C573.555 478.691 572.116 480.185 571.23 481.402C570.345 483.616 568.906 488.596 566.914 496.344C566.029 499.664 565.033 503.814 563.926 508.795C562.819 513.665 561.491 519.531 559.941 526.393C558.503 533.255 556.842 541.279 554.961 550.465C553.079 559.54 550.977 569.944 548.652 581.676L519.932 578.688L507.646 527.057C505.765 536.464 504.271 544.101 503.164 549.967C502.057 555.722 501.227 560.204 500.674 563.414C500.01 567.288 499.622 570.11 499.512 571.881C499.401 573.43 499.29 574.924 499.18 576.363C499.069 577.581 498.903 578.909 498.682 580.348C498.571 581.786 498.405 583.115 498.184 584.332H468.799C465.921 571.715 463.32 560.592 460.996 550.963C458.783 541.223 456.79 532.701 455.02 525.396C453.249 518.092 451.699 511.894 450.371 506.803C449.154 501.712 448.047 497.451 447.051 494.02C444.837 486.051 443.232 481.126 442.236 479.244C441.462 478.359 440.465 477.307 439.248 476.09C438.252 475.094 437.035 473.876 435.596 472.438C434.046 470.888 432.275 469.173 430.283 467.291ZM577.705 465.465C581.468 466.018 584.788 466.406 587.666 466.627C590.654 466.848 593.145 467.07 595.137 467.291C597.461 467.512 599.453 467.623 601.113 467.623H607.588C611.904 467.623 619.043 467.457 629.004 467.125C626.569 467.9 624.521 469.007 622.861 470.445C621.312 471.884 620.039 473.378 619.043 474.928C617.826 476.699 616.94 478.525 616.387 480.406C615.723 482.73 615.114 485.829 614.561 489.703C614.007 493.134 613.454 497.617 612.9 503.15C612.458 508.684 612.015 515.602 611.572 523.902C616.331 518.479 620.482 513.665 624.023 509.459C627.676 505.253 630.83 501.546 633.486 498.336C636.143 495.126 638.356 492.359 640.127 490.035C642.008 487.711 643.558 485.719 644.775 484.059C647.653 480.296 649.313 477.75 649.756 476.422C649.867 475.647 649.811 474.706 649.59 473.6C649.368 472.714 649.036 471.663 648.594 470.445C648.151 469.117 647.487 467.678 646.602 466.129C651.029 466.35 654.792 466.516 657.891 466.627C661.1 466.738 663.757 466.848 665.859 466.959C668.294 467.07 670.286 467.125 671.836 467.125H678.809C681.354 467.125 684.674 467.125 688.77 467.125C692.865 467.014 698.011 466.904 704.209 466.793C700.114 467.789 696.24 469.117 692.588 470.777C688.936 472.438 685.671 474.042 682.793 475.592C679.473 477.473 676.374 479.41 673.496 481.402C670.618 483.616 667.409 486.217 663.867 489.205C660.879 491.751 657.393 494.905 653.408 498.668C649.424 502.32 645.107 506.581 640.459 511.451C645.439 521.191 649.756 529.215 653.408 535.523C657.171 541.721 660.326 546.702 662.871 550.465C665.749 554.892 668.184 558.268 670.176 560.592C672.168 562.695 674.492 564.853 677.148 567.066C679.362 568.948 682.129 571.051 685.449 573.375C688.77 575.589 692.588 577.747 696.904 579.85L649.59 582.174C650.254 581.288 650.641 580.237 650.752 579.02C650.973 577.691 651.084 576.474 651.084 575.367C651.084 574.15 650.973 572.822 650.752 571.383C650.309 569.612 649.147 566.734 647.266 562.75C645.716 559.319 643.337 554.505 640.127 548.307C636.917 541.998 632.49 533.697 626.846 523.404L612.734 538.18C612.181 541.721 611.904 544.931 611.904 547.809C611.904 550.686 612.015 553.066 612.236 554.947C612.568 557.271 613.011 559.264 613.564 560.924C614.229 562.584 615.169 564.465 616.387 566.568C617.383 568.45 618.711 570.663 620.371 573.209C622.031 575.755 624.134 578.577 626.68 581.676C624.134 581.012 621.589 580.569 619.043 580.348C616.497 580.016 614.173 579.794 612.07 579.684C609.635 579.573 607.311 579.628 605.098 579.85C602.773 580.071 600.062 580.403 596.963 580.846C594.307 581.288 591.042 581.842 587.168 582.506C583.294 583.17 578.867 584 573.887 584.996C576.322 583.557 578.258 582.008 579.697 580.348C581.136 578.688 582.298 577.083 583.184 575.533C584.18 573.762 584.844 572.047 585.176 570.387C585.397 568.948 585.563 565.849 585.674 561.09C585.895 556.331 586.006 550.797 586.006 544.488C586.117 538.069 586.117 531.318 586.006 524.234C585.895 517.151 585.785 510.51 585.674 504.312C585.563 498.115 585.397 492.857 585.176 488.541C585.065 484.114 584.954 481.402 584.844 480.406C584.512 478.857 584.069 477.197 583.516 475.426C582.962 473.876 582.188 472.271 581.191 470.611C580.306 468.84 579.144 467.125 577.705 465.465Z" fill="#D94F14"/>
<path d="M166.211 205.195C172.396 206.66 177.93 207.799 182.812 208.613C187.858 209.264 192.09 209.753 195.508 210.078C199.577 210.566 203.158 210.729 206.25 210.566C210.156 210.404 215.039 209.834 220.898 208.857C226.758 207.881 232.943 206.904 239.453 205.928C245.964 204.951 252.393 204.137 258.74 203.486C265.088 202.835 270.622 202.754 275.342 203.242C280.062 203.73 285.026 204.87 290.234 206.66C295.443 208.288 300.326 210.566 304.883 213.496C309.44 216.263 313.346 219.681 316.602 223.75C320.02 227.819 322.135 232.539 322.949 237.91C323.763 243.118 323.275 248.734 321.484 254.756C319.694 260.615 316.846 266.393 312.939 272.09C309.033 277.624 304.15 282.751 298.291 287.471C292.432 292.191 285.921 296.016 278.76 298.945C273.063 301.061 266.878 302.689 260.205 303.828C254.508 304.805 247.835 305.456 240.186 305.781C232.699 305.944 224.723 305.13 216.26 303.34C215.12 308.06 214.469 312.454 214.307 316.523C214.307 320.43 214.469 323.929 214.795 327.021C215.283 330.602 215.934 333.857 216.748 336.787C217.725 339.717 218.945 343.135 220.41 347.041C221.712 350.296 223.177 354.284 224.805 359.004C226.595 363.561 228.711 368.688 231.152 374.385C228.223 374.385 225.374 374.466 222.607 374.629C219.84 374.629 217.318 374.71 215.039 374.873C212.435 375.036 209.993 375.199 207.715 375.361C205.111 375.524 202.181 375.85 198.926 376.338C196.159 376.663 192.66 377.152 188.428 377.803C184.359 378.454 179.72 379.268 174.512 380.244C177.93 375.361 180.615 370.885 182.568 366.816C184.684 362.585 186.23 358.923 187.207 355.83C188.346 352.249 189.079 348.994 189.404 346.064C189.567 343.623 189.567 339.31 189.404 333.125C189.404 326.94 189.323 319.779 189.16 311.641C188.997 303.503 188.753 294.958 188.428 286.006C188.102 277.054 187.695 268.672 187.207 260.859C186.719 252.884 186.149 246.048 185.498 240.352C185.01 234.655 184.521 230.911 184.033 229.121C183.382 227.005 182.243 224.727 180.615 222.285C179.313 220.169 177.441 217.728 175 214.961C172.721 212.031 169.792 208.776 166.211 205.195ZM216.748 253.291C216.585 254.919 216.504 256.628 216.504 258.418C216.504 261.836 216.748 266.23 217.236 271.602C218.376 274.368 219.759 276.647 221.387 278.438C223.177 280.228 225.049 281.611 227.002 282.588C229.118 283.564 231.234 284.215 233.35 284.541C235.465 284.867 237.581 285.029 239.697 285.029C244.58 284.867 249.707 283.727 255.078 281.611C262.24 278.519 267.285 274.124 270.215 268.428C273.145 262.731 274.691 256.872 274.854 250.85C275.016 244.827 273.958 239.294 271.68 234.248C269.564 229.202 266.96 225.785 263.867 223.994C261.263 222.855 257.926 222.367 253.857 222.529C250.277 222.692 245.801 223.587 240.43 225.215C235.059 226.842 228.467 229.772 220.654 234.004C219.84 236.934 219.189 239.538 218.701 241.816C218.213 244.095 217.806 246.13 217.48 247.92C217.155 249.873 216.911 251.663 216.748 253.291ZM311.963 201.777C317.171 202.591 321.891 203.324 326.123 203.975C330.355 204.463 334.017 204.87 337.109 205.195C340.69 205.684 343.864 206.09 346.631 206.416C350.049 206.904 355.176 206.335 362.012 204.707C368.848 202.917 376.335 201.289 384.473 199.824C392.773 198.197 401.237 197.301 409.863 197.139C418.49 196.813 426.383 198.359 433.545 201.777C440.706 205.195 446.566 208.613 451.123 212.031C455.68 215.449 459.261 219.111 461.865 223.018C464.632 226.761 466.585 230.749 467.725 234.98C468.864 239.212 469.515 243.851 469.678 248.896C469.515 256.383 467.725 263.626 464.307 270.625C462.842 273.555 460.889 276.647 458.447 279.902C456.169 282.995 453.32 286.006 449.902 288.936C446.484 291.865 442.415 294.632 437.695 297.236C433.138 299.84 427.767 302.119 421.582 304.072C427.604 305.863 432.568 307.979 436.475 310.42C440.544 312.861 443.799 315.14 446.24 317.256C449.17 319.86 451.367 322.383 452.832 324.824C454.622 328.242 455.843 331.172 456.494 333.613C457.145 336.055 457.552 338.415 457.715 340.693C458.04 342.809 458.447 345.007 458.936 347.285C459.424 349.564 460.482 352.168 462.109 355.098C463.411 357.376 464.958 359.736 466.748 362.178C468.376 364.294 470.247 366.572 472.363 369.014C474.642 371.455 477.409 373.815 480.664 376.094C476.107 376.257 471.875 376.338 467.969 376.338C464.225 376.338 460.97 376.338 458.203 376.338C454.948 376.338 451.855 376.257 448.926 376.094C445.996 375.931 442.334 375.85 437.939 375.85C434.196 375.85 429.395 375.85 423.535 375.85C417.839 375.85 410.921 375.931 402.783 376.094C406.364 373.327 409.294 370.56 411.572 367.793C413.851 365.026 415.641 362.503 416.943 360.225C418.408 357.62 419.466 355.098 420.117 352.656C420.931 348.262 421.012 343.704 420.361 338.984C419.873 334.915 418.571 330.439 416.455 325.557C414.339 320.511 410.921 315.465 406.201 310.42C401.481 311.234 397.493 311.885 394.238 312.373C391.146 312.699 388.46 313.024 386.182 313.35C383.577 313.675 381.462 313.919 379.834 314.082C378.369 314.245 376.742 314.408 374.951 314.57C373.486 314.733 371.859 314.977 370.068 315.303C368.441 315.465 366.895 315.71 365.43 316.035C365.104 323.034 365.104 329.137 365.43 334.346C365.755 339.391 366.162 343.623 366.65 347.041C367.301 351.11 368.034 354.609 368.848 357.539C369.661 360.469 370.801 363.317 372.266 366.084C373.405 368.363 374.87 370.804 376.66 373.408C378.451 375.85 380.485 377.884 382.764 379.512C378.532 379.512 374.463 379.512 370.557 379.512C366.813 379.512 363.395 379.43 360.303 379.268C356.722 379.268 353.304 379.186 350.049 379.023C346.794 378.861 343.132 378.779 339.062 378.779C335.645 378.779 331.576 378.779 326.855 378.779C322.298 378.779 317.334 378.861 311.963 379.023C316.195 374.629 319.531 370.885 321.973 367.793C324.414 364.701 326.286 362.096 327.588 359.98C329.053 357.702 329.948 355.749 330.273 354.121C330.599 351.517 330.843 346.878 331.006 340.205C331.331 333.369 331.576 325.557 331.738 316.768C331.901 307.979 331.982 298.783 331.982 289.18C331.982 279.577 331.901 270.625 331.738 262.324C331.576 253.861 331.413 246.618 331.25 240.596C331.087 234.574 330.924 230.749 330.762 229.121C330.273 226.191 329.215 223.262 327.588 220.332C326.286 217.728 324.414 214.798 321.973 211.543C319.531 208.288 316.195 205.033 311.963 201.777ZM404.248 287.715C405.876 286.738 407.259 285.762 408.398 284.785C409.538 283.809 410.514 282.262 411.328 280.146C412.142 277.868 412.793 274.694 413.281 270.625C413.932 266.556 414.665 261.022 415.479 254.023C416.13 247.025 415.641 241.247 414.014 236.689C412.549 232.132 410.514 228.551 407.91 225.947C405.469 223.18 402.702 221.309 399.609 220.332C396.68 219.193 394.076 218.623 391.797 218.623C387.24 218.623 382.764 220.007 378.369 222.773C373.975 225.54 370.638 229.284 368.359 234.004C367.546 236.12 366.813 239.619 366.162 244.502C365.674 248.734 365.348 254.593 365.186 262.08C365.023 269.567 365.267 279.414 365.918 291.621C372.103 292.598 377.555 293.005 382.275 292.842C386.995 292.516 390.983 291.947 394.238 291.133C398.145 290.319 401.481 289.18 404.248 287.715ZM567.334 195.918C576.123 196.243 584.993 197.871 593.945 200.801C603.06 203.568 611.442 208.125 619.092 214.473C626.742 220.658 633.252 228.714 638.623 238.643C643.994 248.408 647.331 260.371 648.633 274.531C649.772 286.087 648.307 297.562 644.238 308.955C640.332 320.186 634.88 330.521 627.881 339.961C620.882 349.401 612.826 357.458 603.711 364.131C594.596 370.641 585.482 374.954 576.367 377.07C570.833 378.372 564.73 378.535 558.057 377.559C551.546 376.419 544.873 374.385 538.037 371.455C531.364 368.363 524.772 364.456 518.262 359.736C511.914 355.016 506.136 349.645 500.928 343.623C495.719 337.438 491.325 330.765 487.744 323.604C484.326 316.442 482.21 308.955 481.396 301.143C480.583 294.632 480.501 287.471 481.152 279.658C481.966 271.683 483.512 263.789 485.791 255.977C488.232 248.001 491.569 240.352 495.801 233.027C500.195 225.54 505.729 219.03 512.402 213.496C519.076 207.799 526.888 203.405 535.84 200.312C544.954 197.057 555.452 195.592 567.334 195.918ZM523.633 294.795C521.354 312.21 522.982 326.208 528.516 336.787C534.212 347.367 542.757 353.796 554.15 356.074C559.684 357.214 564.974 356.074 570.02 352.656C575.228 349.076 579.948 343.949 584.18 337.275C588.411 330.602 592.074 322.79 595.166 313.838C598.258 304.886 600.537 295.527 602.002 285.762C603.467 275.996 603.548 267.207 602.246 259.395C601.107 251.419 599.072 244.665 596.143 239.131C593.213 233.434 589.632 229.04 585.4 225.947C581.331 222.855 577.1 221.146 572.705 220.82C565.055 220.332 558.382 222.367 552.686 226.924C546.989 231.318 542.188 237.096 538.281 244.258C534.375 251.419 531.201 259.476 528.76 268.428C526.481 277.38 524.772 286.169 523.633 294.795Z" fill="#D94F14"/>
</svg>
